<?xml version="1.0" encoding="UTF-8" standalone="no"?>
<!DOCTYPE svg PUBLIC "-//W3C//DTD SVG 1.1//EN" "http://www.w3.org/Graphics/SVG/1.1/DTD/svg11.dtd">
<svg width="100%" height="100%" viewBox="0 0 1024 1024" version="1.1" xmlns="http://www.w3.org/2000/svg" xmlns:xlink="http://www.w3.org/1999/xlink" xml:space="preserve" xmlns:serif="http://www.serif.com/" style="fill-rule:evenodd;clip-rule:evenodd;stroke-linejoin:round;stroke-miterlimit:2;">
    <g id="White" transform="matrix(1.81818,0,0,2.65152,-339.117,-1140.36)">
        <rect x="186.514" y="430.08" width="563.2" height="386.194" style="fill:white;"/>
    </g>
    <g id="Maroon" transform="matrix(1.04673,0,0,2.8718,-47.9015,-973.033)">
        <rect x="45.763" y="338.824" width="978.286" height="356.571" style="fill:rgb(148,56,56);"/>
    </g>
    <g id="Number" transform="matrix(0.484375,0,0,0.484375,264,264)">
        <path d="M512,0L445.171,4.379L379.485,17.446L316.066,38.973L256,68.594L200.314,105.802L149.961,149.96L105.803,200.313L68.595,256L38.974,316.066L17.446,379.484L4.38,445.17L0,512L4.38,578.829L17.446,644.516L38.974,707.934L68.595,768L105.803,823.687L149.961,874.039L200.314,918.197L256,955.406L316.066,985.027L379.485,1006.55L445.171,1019.62L512,1024L578.83,1019.62L644.516,1006.55L707.934,985.027L768,955.406L823.686,918.197L874.039,874.039L918.197,823.687L955.405,768L985.026,707.934L1006.55,644.516L1019.62,578.829L1024,512L1019.62,445.17L1006.55,379.484L985.026,316.066L955.405,256L918.197,200.313L874.039,149.96L823.686,105.802L768,68.594L707.934,38.973L644.516,17.446L578.83,4.379L512,0Z" style="fill:white;fill-rule:nonzero;"/>
        <path d="M380.51,230.701L616.101,230.703L620.064,230.751L623.84,230.813L627.476,230.917L631.034,231.074L634.6,231.283L638.295,231.601L642.286,232.103L646.81,232.931L652.171,234.362L658.679,236.913L666.37,241.431L674.448,248.793L681.107,258.858L684.847,269.811L685.846,279.549L685.26,287.259L684.022,293.202L682.578,297.921L681.087,301.874L679.58,305.382L678.051,308.655L676.478,311.835L674.845,315.016L673.135,318.308L671.338,321.662L669.447,325.157L667.458,328.813L665.369,332.645L663.181,336.663L660.895,340.872L658.514,345.273L656.042,349.866L653.484,354.646L650.847,359.604L648.138,364.733L645.364,370.027L642.531,375.48L639.643,381.089L636.708,386.856L633.727,392.782L630.705,398.869L627.645,405.123L624.549,411.552L621.419,418.165L618.257,424.973L615.061,431.989L611.834,439.23L608.574,446.711L605.279,454.452L601.95,462.476L598.582,470.804L595.178,479.456L591.741,488.446L588.278,497.797L584.798,507.539L581.31,517.716L577.825,528.383L574.355,539.605L570.914,551.459L567.517,564.033L564.183,577.425L560.934,591.741L557.795,607.099L554.796,623.622L551.968,641.443L549.349,660.701L546.979,681.542L544.904,704.119L542.811,737.143L541.482,756.231L538.884,766.343L534.889,773.891L529.513,780.506L522.963,785.937L515.49,789.971L507.381,792.455L498.948,793.296L490.515,792.455L482.406,789.971L474.933,785.937L468.383,780.506L463.007,773.891L459.116,766.322L456.967,758.112L456.569,751.654L457.995,723.425L459.852,697.198L462.093,672.815L464.673,650.131L467.546,629.007L470.67,609.314L474.007,590.934L477.518,573.755L481.166,557.676L484.919,542.599L488.744,528.437L492.614,515.106L496.502,502.529L500.388,490.634L504.253,479.354L508.085,468.626L511.875,458.392L515.62,448.594L519.323,439.187L522.985,430.128L526.611,421.392L530.199,412.959L533.749,404.813L537.261,396.935L540.731,389.314L544.159,381.936L547.542,374.788L550.877,367.861L554.162,361.146L557.394,354.637L560.568,348.326L563.683,342.208L566.732,336.283L569.713,330.546L572.62,324.999L575.337,319.856L577.343,316.035L380.51,316.035L372.106,315.207L364.025,312.755L356.577,308.775L350.049,303.417L344.692,296.889L340.814,289.421L338.673,281.319L338.154,272.976L339.068,264.713L341.472,256.786L345.377,249.481L350.632,243.077L357.035,237.823L364.34,233.918L372.267,231.513L380.51,230.701Z" style="fill-rule:nonzero;"/>
    </g>
</svg>
