<?xml version="1.0" encoding="UTF-8" standalone="no"?>
<!DOCTYPE svg PUBLIC "-//W3C//DTD SVG 1.1//EN" "http://www.w3.org/Graphics/SVG/1.1/DTD/svg11.dtd">
<svg width="100%" height="100%" viewBox="0 0 1024 1024" version="1.1" xmlns="http://www.w3.org/2000/svg" xmlns:xlink="http://www.w3.org/1999/xlink" xml:space="preserve" xmlns:serif="http://www.serif.com/" style="fill-rule:evenodd;clip-rule:evenodd;stroke-linejoin:round;stroke-miterlimit:2;">
    <g id="White" transform="matrix(1.81818,0,0,2.65152,-339.117,-1140.36)">
        <rect x="186.514" y="430.08" width="563.2" height="386.194" style="fill:white;"/>
    </g>
    <g id="Black" transform="matrix(1.81818,0,0,2.65152,-339.317,-1140.56)">
        <rect x="186.514" y="430.08" width="563.2" height="386.194" style="fill:rgb(5,5,5);"/>
    </g>
    <g id="_8" serif:id="8" transform="matrix(0.484375,0,0,0.484375,264,264)">
        <path d="M512,0L445.171,4.38L379.485,17.446L316.066,38.973L256,68.595L200.314,105.802L149.961,149.96L105.803,200.314L68.595,256L38.974,316.066L17.446,379.484L4.38,445.17L0,511.999L4.38,578.83L17.446,644.515L38.974,707.934L68.595,767.999L105.803,823.685L149.961,874.039L200.314,918.196L256,955.405L316.066,985.026L379.485,1006.55L445.171,1019.62L512,1024L578.829,1019.62L644.515,1006.55L707.934,985.026L768,955.405L823.686,918.196L874.039,874.039L918.197,823.685L955.405,767.999L985.026,707.934L1006.55,644.515L1019.62,578.83L1024,511.999L1019.62,445.17L1006.55,379.484L985.026,316.066L955.405,256L918.197,200.314L874.039,149.96L823.686,105.802L768,68.595L707.934,38.973L644.515,17.446L578.829,4.38L512,0Z" style="fill:white;fill-rule:nonzero;"/>
        <path d="M634.724,489.922L650.633,508.21L662.965,527.084L672.885,547.508L680.206,569.264L684.735,592.114L686.283,615.774L684.735,639.436L680.206,662.284L672.885,684.04L662.965,704.465L650.633,723.339L636.065,740.452L619.43,755.59L600.9,768.524L580.657,779.012L558.916,786.803L535.926,791.639L512,793.296L488.073,791.639L465.084,786.803L443.342,779.012L423.1,768.524L404.569,755.59L387.935,740.452L373.367,723.339L361.034,704.465L351.115,684.04L343.794,662.284L339.265,639.436L337.717,615.774L339.265,592.114L343.794,569.264L351.115,547.508L361.034,527.084L373.367,508.21L389.282,489.922L406.963,474.507L398.574,464.745L388.448,449.395L380.286,432.772L374.241,415.054L370.471,396.437L369.131,377.161L370.317,357.756L373.948,338.987L379.871,321.095L387.93,304.279L397.977,288.716L409.876,274.58L423.497,262.051L438.709,251.32L455.366,242.601L473.291,236.113L492.262,232.082L512,230.702L531.737,232.082L550.709,236.113L568.634,242.601L585.291,251.32L600.503,262.051L614.124,274.58L626.022,288.716L636.07,304.279L644.128,321.095L650.051,338.987L653.683,357.756L654.869,377.161L653.529,396.437L649.759,415.054L643.714,432.772L635.552,449.395L625.426,464.745L617.036,474.507L634.724,489.922Z" style="fill-rule:nonzero;"/>
        <path d="M524.121,524.72L535.593,527.138L546.431,531.027L556.59,536.298L565.99,542.865L574.519,550.631L582.051,559.482L588.463,569.295L593.636,579.94L597.46,591.296L599.835,603.261L600.654,615.774L599.835,628.289L597.46,640.253L593.636,651.609L588.463,662.254L582.051,672.067L574.519,680.919L565.99,688.684L556.59,695.25L546.43,700.522L535.593,704.41L524.121,706.829L512,707.667L499.878,706.829L488.407,704.41L477.569,700.522L467.41,695.25L458.01,688.684L449.481,680.919L441.948,672.067L435.536,662.254L430.364,651.609L426.539,640.253L424.165,628.289L423.346,615.774L424.165,603.261L426.539,591.296L430.364,579.94L435.536,569.295L441.948,559.482L449.481,550.631L458.01,542.865L467.41,536.298L477.569,531.027L488.406,527.138L499.878,524.72L512,523.883L524.121,524.72Z" style="fill:white;fill-rule:nonzero;"/>
        <path d="M540.629,428.025L534.108,431.383L527.166,433.855L519.812,435.393L512,435.929L504.188,435.393L496.834,433.855L489.892,431.383L483.371,428.025L477.32,423.831L471.81,418.857L466.93,413.173L462.765,406.86L459.396,400.004L456.894,392.678L455.325,384.941L454.759,376.804L455.265,368.529L456.797,360.629L459.284,353.125L462.658,346.089L466.842,339.608L471.749,333.776L477.285,328.677L483.358,324.388L489.888,320.962L496.831,318.443L504.183,316.877L512,316.332L519.817,316.877L527.169,318.443L534.111,320.962L540.642,324.388L546.715,328.677L552.251,333.776L557.158,339.608L561.342,346.089L564.716,353.125L567.203,360.629L568.735,368.529L569.241,376.804L568.675,384.941L567.106,392.678L564.604,400.004L561.235,406.86L557.07,413.173L552.189,418.857L546.68,423.831L540.629,428.025Z" style="fill:white;fill-rule:nonzero;"/>
    </g>
</svg>
