<?xml version="1.0" encoding="UTF-8" standalone="no"?>
<!DOCTYPE svg PUBLIC "-//W3C//DTD SVG 1.1//EN" "http://www.w3.org/Graphics/SVG/1.1/DTD/svg11.dtd">
<svg width="100%" height="100%" viewBox="0 0 1024 1024" version="1.1" xmlns="http://www.w3.org/2000/svg" xmlns:xlink="http://www.w3.org/1999/xlink" xml:space="preserve" xmlns:serif="http://www.serif.com/" style="fill-rule:evenodd;clip-rule:evenodd;stroke-linejoin:round;stroke-miterlimit:2;">
    <g id="White" transform="matrix(1.81818,0,0,2.65152,-339.117,-1140.36)">
        <rect x="186.514" y="430.08" width="563.2" height="386.194" style="fill:white;"/>
    </g>
    <g id="Orange" transform="matrix(1.04673,0,0,2.8718,-47.9015,-973.033)">
        <rect x="45.763" y="338.824" width="978.286" height="356.571" style="fill:rgb(230,115,77);"/>
    </g>
    <g id="Number" transform="matrix(0.484375,0,0,0.484375,264,264)">
        <path d="M512,0L445.171,4.38L379.485,17.446L316.066,38.973L256,68.594L200.314,105.803L149.962,149.961L105.803,200.314L68.595,256L38.974,316.066L17.446,379.485L4.38,445.171L0,511.999L4.38,578.829L17.446,644.515L38.974,707.934L68.595,768L105.803,823.686L149.962,874.039L200.314,918.197L256,955.406L316.066,985.026L379.485,1006.55L445.171,1019.62L512,1024L578.829,1019.62L644.516,1006.55L707.934,985.026L768,955.406L823.686,918.197L874.039,874.039L918.197,823.686L955.405,768L985.027,707.934L1006.55,644.515L1019.62,578.829L1024,511.999L1019.62,445.171L1006.55,379.485L985.027,316.066L955.405,256L918.197,200.314L874.039,149.961L823.686,105.803L768,68.594L707.934,38.973L644.516,17.446L578.829,4.38L512,0Z" style="fill:white;fill-rule:nonzero;"/>
        <path d="M616.533,230.703L624.881,231.523L632.908,233.956L640.306,237.904L646.877,243.159L652.48,249.495L656.749,256.819L659.319,264.933L660.157,273.431L659.319,281.928L656.837,290.101L652.805,297.633L647.38,304.234L640.77,309.651L633.227,313.675L625.044,316.154L616.533,316.992L414.537,317.094L414.537,440.383L418.852,437.245L423.913,434.247L427.725,432.223L432.732,429.731L437.841,427.353L442.939,425.099L448.001,422.974L453.043,420.987L458.083,419.143L463.138,417.448L468.229,415.905L473.376,414.523L478.601,413.302L483.926,412.251L489.375,411.368L494.972,410.662L500.74,410.134L506.705,409.789L512.788,409.631L518.89,409.662L525.006,409.888L531.125,410.309L537.242,410.931L543.348,411.758L549.435,412.791L555.494,414.033L561.519,415.487L567.499,417.155L573.426,419.039L579.29,421.139L585.083,423.457L590.795,425.993L596.417,428.744L601.94,431.715L607.353,434.9L612.648,438.299L617.815,441.91L622.844,445.728L627.727,449.749L632.451,453.969L637.012,458.382L641.4,462.978L645.608,467.752L649.63,472.692L653.461,477.792L657.1,483.039L660.543,488.425L663.792,493.943L666.849,499.588L669.717,505.355L672.396,511.243L674.891,517.247L677.202,523.364L679.331,529.596L681.276,535.939L683.037,542.392L684.616,548.956L686.008,555.627L687.211,562.406L688.223,569.292L689.039,576.282L689.655,583.378L690.063,590.58L690.259,601.588L690.231,608.999L689.969,616.511L689.462,624.124L688.694,631.832L687.646,639.628L686.302,647.509L684.638,655.464L682.629,663.483L680.249,671.553L677.466,679.658L674.246,687.777L670.559,695.878L666.382,703.911L661.702,711.819L656.518,719.547L650.838,727.043L644.677,734.26L638.056,741.155L631.003,747.696L623.55,753.853L615.731,759.602L607.58,764.928L599.135,769.82L590.431,774.265L581.504,778.259L572.389,781.797L563.114,784.878L553.7,787.494L544.171,789.639L534.546,791.305L524.847,792.479L515.095,793.149L505.314,793.297L495.529,792.91L485.768,791.973L476.061,790.477L466.44,788.411L456.941,785.772L447.601,782.563L438.453,778.792L429.522,774.47L420.825,769.607L412.372,764.21L404.176,758.283L396.248,751.835L388.593,744.87L381.219,737.393L374.125,729.411L367.31,720.919L360.766,711.917L354.482,702.395L348.444,692.34L343.473,683.268L338.813,674.096L335.815,664.498L335.052,653.788L336.337,645.469L339.116,637.556L343.384,630.338L348.98,624.091L356.718,618.585L366.035,614.865L376.689,613.651L386.665,615.114L395.305,619.267L401.578,625.671L406.237,633.437L410.173,641.299L413.614,648.194L416.965,654.349L421.01,661.04L425.401,667.539L429.798,673.36L434.23,678.611L439.025,683.623L445.265,689.258L453.714,695.871L461.943,701.05L469.869,704.988L477.797,707.999L485.921,710.218L494.3,711.66L504.067,712.35L514.165,712.075L523.847,710.912L533.127,709.001L543.478,705.796L553.237,701.692L562.154,696.845L570.118,691.4L577.137,685.459L583.299,679.044L588.734,672.097L593.565,664.49L597.855,656.115L601.555,647.022L604.582,637.345L606.864,627.245L608.345,616.911L608.996,606.54L608.825,592.627L607.874,582.739L606.211,573.299L603.922,564.401L601.1,556.115L597.841,548.483L594.234,541.519L590.35,535.213L586.238,529.524L581.911,524.384L577.347,519.711L572.515,515.44L567.376,511.527L561.898,507.947L556.059,504.697L549.854,501.792L543.294,499.255L536.406,497.116L529.227,495.406L521.81,494.154L514.221,493.385L506.539,493.115L498.994,493.348L491.779,494.077L484.892,495.284L478.318,496.945L472.025,499.035L465.968,501.53L460.1,504.409L454.363,507.661L448.694,511.278L443.046,515.247L437.399,519.526L431.919,524.054L426.742,528.733L421.926,533.456L417.526,538.09L413.575,542.507L406.994,547.951L399.507,552.588L394.046,555.356L386.66,557.556L375.661,558.528L363.551,557.041L355.365,553.27L347.057,547.724L341.469,541.186L336.802,533.523L333.388,525.725L330.945,515.997L329.345,505.568L328.228,494.105L328.411,287.048L328.528,283.777L328.787,280.034L329.352,275.491L330.551,269.789L332.956,262.729L337.265,254.678L343.714,246.826L351.502,240.567L359.259,236.434L366.117,234.021L372.044,232.66L377.382,231.886L382.53,231.439L388.004,231.169L394.444,230.858L402.564,230.703L616.533,230.703Z" style="fill-rule:nonzero;"/>
    </g>
</svg>
