<?xml version="1.0" encoding="UTF-8" standalone="no"?>
<!DOCTYPE svg PUBLIC "-//W3C//DTD SVG 1.1//EN" "http://www.w3.org/Graphics/SVG/1.1/DTD/svg11.dtd">
<svg width="100%" height="100%" viewBox="0 0 1024 1024" version="1.1" xmlns="http://www.w3.org/2000/svg" xmlns:xlink="http://www.w3.org/1999/xlink" xml:space="preserve" xmlns:serif="http://www.serif.com/" style="fill-rule:evenodd;clip-rule:evenodd;stroke-linejoin:round;stroke-miterlimit:2;">
    <g id="White" transform="matrix(1.81818,0,0,2.65152,-339.117,-1140.36)">
        <rect x="186.514" y="430.08" width="563.2" height="386.194" style="fill:white;"/>
    </g>
    <g id="Red" transform="matrix(1.04673,0,0,2.8718,-47.9015,-973.033)">
        <rect x="45.763" y="338.824" width="978.286" height="356.571" style="fill:rgb(255,0,0);"/>
    </g>
    <g id="_3" serif:id="3" transform="matrix(0.484375,0,0,0.484375,264,264)">
        <path d="M445.171,4.38L379.484,17.446L316.066,38.973L256,68.594L200.314,105.803L149.962,149.961L105.803,200.314L68.595,256L38.974,316.066L17.446,379.485L4.38,445.171L0,511.999L4.38,578.829L17.446,644.515L38.974,707.934L68.595,768L105.803,823.686L149.962,874.039L200.314,918.197L256,955.406L316.066,985.026L379.484,1006.55L445.171,1019.62L512,1024L578.829,1019.62L644.515,1006.55L707.934,985.026L768,955.406L823.686,918.197L874.038,874.039L918.198,823.686L955.405,768L985.027,707.934L1006.55,644.515L1019.62,578.829L1024,511.999L1019.62,445.171L1006.55,379.485L985.027,316.066L955.405,256L918.198,200.314L874.038,149.961L823.686,105.803L768,68.594L707.934,38.973L644.515,17.446L578.829,4.38L512,0L445.171,4.38Z" style="fill:white;fill-rule:nonzero;"/>
        <path d="M390.392,230.703L382.171,231.51L374.266,233.908L366.981,237.801L360.596,243.042L355.355,249.427L351.462,256.713L349.064,264.618L348.153,272.858L348.67,281.178L350.805,289.257L354.672,296.706L360.015,303.216L366.525,308.558L373.952,312.527L382.011,314.973L390.392,315.798L441.951,315.856L538.961,315.856L533.657,322.077L529.072,327.454L524.519,332.79L520.021,338.059L515.596,343.239L511.266,348.304L507.05,353.23L502.964,357.996L499.024,362.584L495.241,366.982L491.618,371.191L488.16,375.212L484.866,379.061L481.725,382.76L478.724,386.349L475.838,389.887L473.03,393.465L470.251,397.221L467.448,401.361L464.587,406.205L461.734,412.194L459.205,419.835L457.737,429.372L458.295,440.175L461.215,450.65L465.714,459.329L470.652,465.857L475.378,470.687L479.741,474.41L483.824,477.48L487.755,480.192L491.651,482.727L495.593,485.201L499.633,487.687L503.802,490.234L508.107,492.872L512.545,495.62L517.099,498.49L521.739,501.481L526.431,504.593L531.131,507.81L535.792,511.124L540.371,514.519L544.828,517.983L549.129,521.499L553.241,525.055L557.141,528.636L560.808,532.234L564.229,535.837L567.398,539.437L570.313,543.036L572.981,546.635L575.416,550.245L577.635,553.885L579.654,557.58L581.498,561.365L583.183,565.278L584.726,569.353L586.131,573.608L587.397,578.05L588.523,582.676L589.502,587.478L590.326,592.446L590.991,597.561L591.488,602.804L591.81,608.151L591.947,613.577L591.895,619.051L591.644,624.545L591.188,630.023L590.52,635.454L589.636,640.802L588.532,646.032L587.204,651.116L585.647,656.04L583.854,660.799L581.817,665.395L579.532,669.824L576.991,674.085L574.186,678.178L571.112,682.093L567.762,685.824L564.131,689.36L560.217,692.683L556.02,695.778L551.54,698.623L546.785,701.193L541.766,703.465L536.495,705.407L530.991,706.996L525.28,708.199L519.401,708.983L513.397,709.319L507.308,709.178L501.176,708.53L495.031,707.343L488.894,705.584L482.778,703.199L476.679,700.128L470.591,696.278L464.508,691.533L458.433,685.745L452.392,678.748L446.434,670.355L440.64,660.376L434.503,647.225L430.38,640.141L424.968,634.012L418.62,628.927L411.474,625.107L403.721,622.755L395.657,621.961L387.593,622.755L379.84,625.107L372.694,628.927L366.431,634.067L361.29,640.33L357.471,647.477L355.119,655.23L354.225,663.313L354.732,671.475L356.826,679.399L366.27,699.396L375.823,715.823L386.307,730.576L397.625,743.673L409.653,755.128L422.254,764.957L435.28,773.199L448.576,779.905L462.003,785.146L475.431,789.01L488.752,791.59L501.878,792.987L514.741,793.297L527.288,792.596L539.479,790.973L551.282,788.492L562.671,785.208L573.615,781.175L584.082,776.441L594.041,771.058L603.47,765.074L612.34,758.536L620.631,751.497L628.326,744.008L635.412,736.121L641.877,727.89L647.72,719.371L652.942,710.621L657.551,701.695L661.563,692.651L665,683.543L667.889,674.427L670.265,665.35L672.169,656.35L673.644,647.445L674.728,638.645L675.454,629.956L675.847,621.379L675.93,612.914L675.717,604.563L675.222,596.322L674.45,588.185L673.406,580.149L672.086,572.207L670.485,564.354L668.594,556.59L666.399,548.903L663.886,541.298L661.036,533.776L657.834,526.347L654.274,519.041L650.363,511.884L646.114,504.91L641.55,498.138L636.695,491.589L631.579,485.269L626.232,479.187L620.686,473.343L614.974,467.737L609.129,462.364L603.186,457.224L597.181,452.312L591.154,447.628L585.145,443.171L579.2,438.943L573.368,434.948L567.699,431.188L562.242,427.67L556.729,424.262L558.904,421.759L562.718,417.324L566.702,412.685L570.831,407.867L575.084,402.9L579.443,397.8L583.89,392.595L588.404,387.307L592.968,381.958L597.559,376.573L602.158,371.181L606.741,365.807L611.288,360.478L615.775,355.222L620.178,350.066L624.472,345.043L628.634,340.184L632.636,335.518L636.451,331.081L640.077,326.877L646.536,318.03L653.341,306.966L657.954,294.571L659.71,281.051L657.067,266.563L649.363,251.76L635.807,240.825L620.18,234.591L606.444,232.372L590.97,231.159L574.987,230.644L390.392,230.703Z" style="fill-rule:nonzero;"/>
    </g>
</svg>
