<?xml version="1.0" encoding="UTF-8" standalone="no"?>
<!DOCTYPE svg PUBLIC "-//W3C//DTD SVG 1.1//EN" "http://www.w3.org/Graphics/SVG/1.1/DTD/svg11.dtd">
<svg width="100%" height="100%" viewBox="0 0 1024 1024" version="1.1" xmlns="http://www.w3.org/2000/svg" xmlns:xlink="http://www.w3.org/1999/xlink" xml:space="preserve" xmlns:serif="http://www.serif.com/" style="fill-rule:evenodd;clip-rule:evenodd;stroke-linejoin:round;stroke-miterlimit:2;">
    <g id="White" transform="matrix(1.81818,0,0,2.65152,-339.117,-1140.36)">
        <rect x="186.514" y="430.08" width="563.2" height="386.194" style="fill:white;"/>
    </g>
    <g id="Green-Strpe" serif:id="Green Strpe" transform="matrix(1.04673,0,0,1.86218,-47.9015,-450.952)">
        <rect x="45.763" y="338.824" width="978.286" height="356.571" style="fill:rgb(30,123,107);"/>
    </g>
    <g id="Number" transform="matrix(0.484375,0,0,0.484375,264,264)">
        <path d="M512,0L578.829,4.38L644.515,17.446L707.934,38.973L768,68.595L823.685,105.803L874.039,149.961L918.197,200.314L955.405,256L985.026,316.067L1006.55,379.484L1019.62,445.171L1024,512L1019.62,578.83L1006.55,644.516L985.026,707.934L955.405,768L918.197,823.686L874.039,874.038L823.685,918.197L768,955.406L707.934,985.027L644.515,1006.55L578.829,1019.62L512,1024L445.17,1019.62L379.484,1006.55L316.066,985.027L256,955.406L200.314,918.197L149.961,874.038L105.803,823.686L68.595,768L38.973,707.934L17.446,644.516L4.38,578.83L0,512L4.38,445.171L17.446,379.484L38.973,316.067L68.595,256L105.803,200.314L149.961,149.961L200.314,105.803L256,68.595L316.066,38.973L379.484,17.446L445.17,4.38L512,0Z" style="fill:white;fill-rule:nonzero;"/>
        <path d="M282.705,786.184L276.31,780.936L271.061,774.54L267.161,767.243L264.759,759.326L263.847,751.074L263.847,272.928L264.759,264.674L267.161,256.758L271.061,249.46L276.31,243.065L282.705,237.816L290.002,233.915L297.919,231.514L306.153,230.703L314.386,231.514L322.304,233.915L329.6,237.816L336.082,243.065L341.608,249.46L345.819,256.758L348.354,264.673L349.18,272.927L349.18,751.073L348.354,759.326L345.819,767.243L341.608,774.54L336.082,780.936L329.6,786.184L322.304,790.085L314.386,792.486L306.153,793.298L297.919,792.486L290.002,790.085L282.705,786.184Z" style="fill-rule:nonzero;"/>
        <path d="M532.047,652.784L613.182,652.729L613.198,758.634L615.368,766.725L619.298,774.182L624.727,780.7L631.342,786.049L638.89,790.025L647.079,792.472L655.595,793.299L664.112,792.472L672.301,790.025L679.849,786.049L686.464,780.7L691.893,774.182L695.927,766.745L698.407,758.634L698.392,652.113L717.138,652.113L725.53,650.995L733.599,648.548L741.036,644.572L747.554,639.224L752.904,632.706L756.879,625.269L759.326,617.2L760.153,608.808L759.326,600.415L756.792,592.405L752.584,585.172L747.058,578.917L740.579,573.726L733.285,569.827L725.37,567.426L717.138,566.901L698.315,566.901L697.821,405.616L697.493,333.88L696.82,313.921L695.738,299.645L694.484,288.039L692.807,277.794L690.478,268.192L687.399,257.761L681.993,248.107L675.934,241.9L668.694,236.915L659.9,232.677L650.31,231.152L641.171,230.703L632.405,231.322L622.672,233.255L612.921,237.522L604.584,243.465L598.414,249.048L593.109,254.581L588.134,260.3L583.283,266.305L578.459,272.63L573.609,279.283L568.703,286.265L563.724,293.562L558.665,301.16L553.525,309.035L548.306,317.165L543.012,325.521L430.6,513.679L426.848,520.565L423.302,527.25L419.968,533.749L416.851,540.092L413.956,546.316L411.288,552.478L408.86,558.653L406.69,564.947L404.822,571.499L403.335,578.544L402.408,586.526L402.526,596.037L404.694,607.364L410.113,619.607L418.847,630.551L429.259,638.481L439.684,643.501L449.708,646.612L459.768,648.644L470.522,650.058L482.593,651.081L496.539,651.825L512.863,652.346L532.047,652.784Z" style="fill-rule:nonzero;"/>
        <path d="M498.846,566.665L611.665,376.435L613.104,566.665L498.846,566.665Z" style="fill:white;fill-rule:nonzero;"/>
    </g>
</svg>
