<?xml version="1.0" encoding="UTF-8" standalone="no"?>
<!DOCTYPE svg PUBLIC "-//W3C//DTD SVG 1.1//EN" "http://www.w3.org/Graphics/SVG/1.1/DTD/svg11.dtd">
<svg width="100%" height="100%" viewBox="0 0 1024 1024" version="1.1" xmlns="http://www.w3.org/2000/svg" xmlns:xlink="http://www.w3.org/1999/xlink" xml:space="preserve" xmlns:serif="http://www.serif.com/" style="fill-rule:evenodd;clip-rule:evenodd;stroke-linejoin:round;stroke-miterlimit:2;">
    <g id="White" transform="matrix(1.81818,0,0,2.65152,-339.117,-1140.36)">
        <rect x="186.514" y="430.08" width="563.2" height="386.194" style="fill:white;"/>
    </g>
    <g id="Orange-Strpe" serif:id="Orange Strpe" transform="matrix(1.04673,0,0,1.86218,-47.9015,-450.952)">
        <rect x="45.763" y="338.824" width="978.286" height="356.571" style="fill:rgb(229,115,77);"/>
    </g>
    <g id="Number" transform="matrix(0.484375,0,0,0.484375,264,264)">
        <path d="M512,0L578.829,4.379L644.516,17.446L707.934,38.974L768,68.594L823.685,105.803L874.038,149.961L918.197,200.314L955.405,256L985.026,316.066L1006.55,379.485L1019.62,445.171L1024,511.999L1019.62,578.829L1006.55,644.515L985.026,707.934L955.405,768L918.197,823.686L874.038,874.039L823.685,918.197L768,955.406L707.934,985.027L644.516,1006.55L578.829,1019.62L512,1024L445.17,1019.62L379.484,1006.55L316.066,985.027L256,955.406L200.314,918.197L149.961,874.039L105.803,823.686L68.595,768L38.973,707.934L17.446,644.515L4.38,578.829L0,511.999L4.38,445.171L17.446,379.485L38.973,316.066L68.595,256L105.803,200.314L149.961,149.961L200.314,105.803L256,68.594L316.066,38.974L379.484,17.446L445.17,4.379L512,0Z" style="fill:white;fill-rule:nonzero;"/>
        <path d="M285.844,786.185L293.141,790.085L301.058,792.486L309.292,793.297L317.526,792.486L325.444,790.085L332.74,786.185L339.222,780.935L344.748,774.54L348.958,767.243L351.493,759.327L352.32,751.072L352.32,272.928L351.493,264.673L348.958,256.757L344.748,249.46L339.222,243.065L332.74,237.815L325.444,233.915L317.526,231.514L309.292,230.703L301.058,231.514L293.141,233.915L285.844,237.815L279.449,243.065L274.2,249.46L270.3,256.757L267.898,264.675L266.986,272.928L266.986,751.072L267.898,759.325L270.3,767.243L274.2,774.54L279.449,780.935L285.844,786.185Z" style="fill-rule:nonzero;"/>
        <path d="M471.475,230.703L463.254,231.51L455.35,233.908L448.065,237.801L441.679,243.042L436.439,249.427L432.545,256.713L430.146,264.618L429.236,272.858L429.753,281.178L431.888,289.257L435.756,296.706L441.098,303.216L447.608,308.558L455.035,312.527L463.094,314.973L471.475,315.798L523.034,315.856L620.045,315.856L614.741,322.077L610.155,327.454L605.603,332.79L601.104,338.059L596.68,343.239L592.35,348.304L588.132,353.23L584.047,357.996L580.107,362.584L576.324,366.982L572.702,371.191L569.244,375.212L565.949,379.061L562.809,382.76L559.808,386.349L556.922,389.887L554.113,393.465L551.334,397.221L548.531,401.361L545.67,406.205L542.817,412.194L540.287,419.835L538.82,429.371L539.378,440.175L542.299,450.65L546.797,459.329L551.735,465.857L556.461,470.687L560.824,474.41L564.906,477.48L568.839,480.192L572.735,482.728L576.676,485.201L580.717,487.687L584.885,490.234L589.191,492.872L593.629,495.62L598.181,498.49L602.823,501.481L607.515,504.593L612.215,507.81L616.876,511.124L621.454,514.519L625.912,517.983L630.212,521.499L634.325,525.055L638.225,528.636L641.892,532.234L645.312,535.837L648.481,539.437L651.396,543.036L654.065,546.635L656.501,550.245L658.718,553.885L660.738,557.58L662.58,561.365L664.266,565.278L665.809,569.353L667.214,573.608L668.481,578.05L669.606,582.676L670.584,587.478L671.41,592.446L672.075,597.561L672.571,602.804L672.892,608.151L673.031,613.577L672.978,619.051L672.728,624.545L672.272,630.023L671.604,635.454L670.72,640.802L669.615,646.032L668.287,651.116L666.73,656.039L664.938,660.799L662.901,665.395L660.616,669.823L658.075,674.085L655.27,678.178L652.195,682.093L648.846,685.824L645.215,689.36L641.301,692.683L637.102,695.778L632.624,698.623L627.869,701.193L622.849,703.465L617.578,705.406L612.074,706.996L606.363,708.198L600.485,708.983L594.48,709.319L588.392,709.178L582.259,708.53L576.114,707.343L569.978,705.584L563.861,703.199L557.762,700.127L551.675,696.278L545.591,691.533L539.517,685.745L533.476,678.748L527.517,670.355L521.723,660.376L515.586,647.225L511.463,640.141L506.051,634.011L499.704,628.927L492.558,625.107L484.804,622.755L476.74,621.961L468.677,622.755L460.922,625.107L453.777,628.927L447.514,634.067L442.374,640.33L438.554,647.477L436.202,655.23L435.308,663.314L435.815,671.474L437.909,679.399L447.353,699.396L456.906,715.823L467.391,730.576L478.708,743.673L490.736,755.128L503.338,764.957L516.362,773.199L529.66,779.905L543.086,785.145L556.514,789.01L569.835,791.59L582.961,792.987L595.825,793.297L608.371,792.596L620.563,790.973L632.366,788.492L643.754,785.208L654.697,781.175L665.165,776.441L675.126,771.059L684.553,765.073L693.423,758.536L701.714,751.497L709.41,744.008L716.495,736.121L722.961,727.89L728.804,719.372L734.025,710.621L738.635,701.695L742.647,692.651L746.083,683.543L748.972,674.427L751.348,665.35L753.252,656.35L754.727,647.445L755.812,638.645L756.537,629.956L756.93,621.379L757.013,612.914L756.8,604.563L756.305,596.322L755.534,588.185L754.489,580.148L753.169,572.206L751.568,564.354L749.677,556.59L747.482,548.903L744.969,541.298L742.12,533.776L738.917,526.347L735.357,519.041L731.446,511.884L727.197,504.91L722.633,498.138L717.778,491.589L712.662,485.269L707.315,479.187L701.769,473.343L696.057,467.737L690.213,462.364L684.269,457.224L678.264,452.312L672.237,447.628L666.228,443.171L660.283,438.943L654.451,434.948L648.783,431.189L643.326,427.67L637.812,424.262L639.987,421.759L643.801,417.324L647.786,412.685L651.914,407.867L656.167,402.9L660.526,397.8L664.973,392.595L669.488,387.307L674.052,381.958L678.643,376.573L683.241,371.181L687.825,365.807L692.371,360.478L696.858,355.221L701.26,350.066L705.556,345.043L709.717,340.184L713.72,335.518L717.535,331.081L721.159,326.877L727.619,318.03L734.424,306.966L739.037,294.571L740.793,281.051L738.151,266.563L730.446,251.76L716.89,240.825L701.263,234.591L687.526,232.372L672.054,231.159L656.07,230.644L471.475,230.703Z" style="fill-rule:nonzero;"/>
    </g>
</svg>
