<?xml version="1.0" encoding="UTF-8" standalone="no"?>
<!DOCTYPE svg PUBLIC "-//W3C//DTD SVG 1.1//EN" "http://www.w3.org/Graphics/SVG/1.1/DTD/svg11.dtd">
<svg width="100%" height="100%" viewBox="0 0 1024 1024" version="1.1" xmlns="http://www.w3.org/2000/svg" xmlns:xlink="http://www.w3.org/1999/xlink" xml:space="preserve" xmlns:serif="http://www.serif.com/" style="fill-rule:evenodd;clip-rule:evenodd;stroke-linejoin:round;stroke-miterlimit:2;">
    <g id="White" transform="matrix(1.81818,0,0,2.65152,-339.117,-1140.36)">
        <rect x="186.514" y="430.08" width="563.2" height="386.194" style="fill:white;"/>
    </g>
    <g id="Blue" transform="matrix(1.04673,0,0,2.8718,-47.9015,-973.033)">
        <rect x="45.763" y="338.824" width="978.286" height="356.571" style="fill:rgb(32,103,223);"/>
    </g>
    <g id="Number" transform="matrix(0.484375,0,0,0.484375,264,264)">
        <path d="M512,0L445.171,4.38L379.485,17.446L316.066,38.973L256,68.594L200.315,105.803L149.962,149.961L105.804,200.315L68.595,256L38.974,316.066L17.447,379.485L4.38,445.171L0,511.999L4.38,578.829L17.447,644.515L38.974,707.934L68.595,768L105.804,823.686L149.962,874.039L200.315,918.197L256,955.406L316.066,985.027L379.485,1006.55L445.171,1019.62L512,1024L578.829,1019.62L644.516,1006.55L707.934,985.027L768,955.406L823.686,918.197L874.038,874.039L918.197,823.686L955.405,768L985.026,707.934L1006.55,644.515L1019.62,578.829L1024,511.999L1019.62,445.171L1006.55,379.485L985.026,316.066L955.405,256L918.197,200.315L874.038,149.961L823.686,105.803L768,68.594L707.934,38.973L644.516,17.446L578.829,4.38L512,0Z" style="fill:white;fill-rule:nonzero;"/>
        <path d="M346.77,374.749L350.91,359.896L356.314,346.175L362.236,333.382L368.496,321.435L375.075,310.296L382.089,300.006L389.521,290.555L397.323,281.919L405.444,274.07L413.835,266.976L422.453,260.6L431.264,254.902L440.249,249.847L449.4,245.401L458.718,241.54L468.203,238.257L477.841,235.558L487.594,233.452L497.429,231.942L507.307,231.027L517.192,230.702L527.049,230.96L536.845,231.785L546.55,233.164L556.136,235.084L565.573,237.524L574.838,240.474L583.905,243.915L592.75,247.834L601.349,252.22L609.676,257.062L617.7,262.348L625.387,268.068L632.702,274.201L639.609,280.728L646.075,287.625L652.069,294.86L657.564,302.398L662.534,310.199L666.963,318.214L670.839,326.39L674.163,334.675L676.94,343.009L679.187,351.335L680.93,359.595L682.202,367.735L683.043,375.726L683.493,383.561L683.583,391.241L683.336,398.769L682.767,406.155L681.888,413.403L680.7,420.524L679.204,427.524L677.395,434.405L675.265,441.172L672.808,447.815L670.017,454.33L666.894,460.699L663.443,466.909L659.678,472.945L655.62,478.793L651.291,484.454L646.717,489.933L641.915,495.251L636.9,500.433L631.678,505.506L626.245,510.484L620.602,515.391L614.753,520.247L608.693,525.065L602.429,529.855L595.972,534.632L589.339,539.404L582.549,544.173L575.626,548.942L568.598,553.71L561.447,558.457L554.183,563.17L546.85,567.855L539.493,572.509L532.156,577.14L524.884,581.746L517.718,586.332L510.698,590.9L503.864,595.451L497.247,599.983L490.883,604.497L484.795,608.986L479.005,613.439L473.533,617.851L468.39,622.207L463.575,626.502L459.085,630.725L454.914,634.868L451.055,638.922L447.502,642.883L444.248,646.744L441.283,650.5L438.594,654.146L436.171,657.684L433.995,661.112L432.053,664.438L430.326,667.667L428.795,670.81L427.442,673.883L426.247,676.9L425.195,679.874L424.273,682.816L423.473,685.729L422.783,688.624L422.197,691.503L421.705,694.368L421.303,697.218L420.984,700.053L420.742,702.869L420.57,705.66L420.652,708.157L427.057,708.175L433.26,708.181L439.933,708.183L624.471,708.183L645.622,708.165L653.84,708.974L661.743,711.37L669.025,715.264L675.495,720.445L681.011,726.692L685.213,733.913L687.743,741.911L688.568,750.289L687.743,758.667L685.299,766.725L681.331,774.149L675.99,780.656L669.482,785.997L662.057,789.966L654.001,792.41L645.622,793.236L635.892,793.297L405.618,793.295L399.326,793.056L391.141,792.329L385.027,791.512L378.363,790.204L371.945,788.267L365.238,785.4L358.315,780.945L351.999,775.222L346.958,768.875L343.364,762.668L340.968,757.065L339.397,752.173L338.343,747.887L337.603,744.028L337.052,740.428L336.622,736.945L336.271,733.47L335.98,729.921L335.741,726.236L335.556,722.367L335.431,718.284L335.384,713.977L335.43,709.459L335.586,704.741L335.871,699.839L336.302,694.765L336.896,689.532L337.671,684.155L338.645,678.645L339.833,673.02L341.253,667.292L342.918,661.481L344.841,655.597L347.025,649.645L349.464,643.636L352.131,637.571L355.032,631.476L358.172,625.372L361.552,619.285L365.172,613.229L369.03,607.223L373.125,601.278L377.454,595.405L382.017,589.606L386.812,583.889L391.838,578.256L397.097,572.709L402.589,567.248L408.315,561.876L414.276,556.595L420.471,551.403L426.884,546.297L433.499,541.269L440.298,536.313L447.263,531.424L454.367,526.597L461.583,521.821L468.875,517.086L476.207,512.384L483.543,507.71L490.842,503.054L498.064,498.415L505.167,493.789L512.114,489.179L518.928,484.608L525.588,480.087L532.058,475.63L538.3,471.247L544.281,466.948L549.969,462.749L555.335,458.658L560.355,454.687L565.006,450.848L569.278,447.158L573.16,443.63L576.647,440.275L579.74,437.1L582.452,434.106L584.804,431.292L586.833,428.643L588.582,426.126L590.105,423.688L591.446,421.273L592.648,418.823L593.734,416.286L594.718,413.625L595.605,410.804L596.391,407.808L597.069,404.63L597.628,401.275L598.055,397.758L598.336,394.101L598.461,390.335L598.417,386.492L598.195,382.617L597.79,378.752L597.197,374.941L596.412,371.208L595.428,367.557L594.239,363.983L592.836,360.481L591.209,357.047L589.346,353.675L587.235,350.364L584.865,347.11L582.224,343.923L579.303,340.81L576.1,337.785L572.617,334.866L568.861,332.074L564.849,329.431L560.603,326.963L556.156,324.696L551.548,322.654L546.814,320.858L541.99,319.321L537.108,318.057L532.194,317.073L527.273,316.372L522.362,315.958L517.477,315.831L512.627,315.989L507.816,316.433L503.046,317.165L498.315,318.187L493.616,319.503L488.944,321.121L484.309,323.041L479.738,325.261L475.26,327.78L470.894,330.6L466.652,333.737L462.53,337.22L458.518,341.096L454.601,345.431L450.76,350.316L446.984,355.858L443.238,362.165L439.494,369.352L435.772,377.558L431.667,386.853L426.607,397.182L421.525,406.8L416.259,413.237L410.177,418.56L403.172,422.498L395.223,424.852L386.713,425.548L378.237,424.617L370.119,422.099L362.67,418.102L356.179,412.783L350.989,406.342L347.561,398.994L346.033,391.035L345.919,382.847L346.77,374.749Z" style="fill-rule:nonzero;"/>
    </g>
</svg>
