<?xml version="1.0" encoding="UTF-8" standalone="no"?>
<!DOCTYPE svg PUBLIC "-//W3C//DTD SVG 1.1//EN" "http://www.w3.org/Graphics/SVG/1.1/DTD/svg11.dtd">
<svg width="100%" height="100%" viewBox="0 0 1024 1024" version="1.1" xmlns="http://www.w3.org/2000/svg" xmlns:xlink="http://www.w3.org/1999/xlink" xml:space="preserve" xmlns:serif="http://www.serif.com/" style="fill-rule:evenodd;clip-rule:evenodd;stroke-linejoin:round;stroke-miterlimit:2;">
    <g id="White" transform="matrix(1.81818,0,0,2.65152,-339.117,-1140.36)">
        <rect x="186.514" y="430.08" width="563.2" height="386.194" style="fill:white;"/>
    </g>
    <g id="Green" transform="matrix(1.04673,0,0,2.8718,-47.9015,-973.033)">
        <rect x="45.763" y="338.824" width="978.286" height="356.571" style="fill:rgb(30,123,107);"/>
    </g>
    <g id="Number" transform="matrix(0.484375,0,0,0.484375,264,264)">
        <path d="M512,1024L578.83,1019.62L644.516,1006.55L707.934,985.027L768,955.406L823.686,918.197L874.039,874.039L918.197,823.686L955.405,768L985.027,707.934L1006.55,644.515L1019.62,578.83L1024,512L1019.62,445.17L1006.55,379.484L985.027,316.066L955.405,255.999L918.197,200.313L874.039,149.96L823.686,105.802L768,68.594L707.934,38.973L644.516,17.445L578.83,4.379L512,0L445.171,4.379L379.485,17.445L316.066,38.973L256,68.594L200.314,105.802L149.961,149.96L105.803,200.313L68.595,255.999L38.974,316.066L17.446,379.484L4.38,445.17L0,512L4.38,578.83L17.446,644.515L38.974,707.934L68.595,768L105.803,823.686L149.961,874.039L200.314,918.197L256,955.406L316.066,985.027L379.485,1006.55L445.171,1019.62L512,1024Z" style="fill:white;fill-rule:nonzero;"/>
        <path d="M538.558,371.369L560.121,375.912L580.471,383.243L599.369,393.118L616.623,405.276L632.081,419.462L645.623,435.435L657.141,452.969L666.564,471.875L673.857,491.996L678.899,513.128L681.552,535.036L681.708,559.211L679.232,582.583L674.421,604.833L667.049,626.011L657.046,646.778L644.315,666.171L628.808,683.6L610.632,698.767L589.948,711.24L567.037,720.571L542.321,726.318L516.504,728.098L490.841,725.958L466.966,719.805L445.312,710.236L425.643,697.614L408.156,682.404L394.151,666.391L380.675,647.455L370.383,629.469L362.206,610.623L356.04,591.814L351.377,572.668L348.075,551.211L346.626,536.342L345.411,521.774L344.44,507.643L343.856,494.132L343.627,481.358L343.556,469.329L343.4,457.859L343.247,447.112L343.151,436.983L343.18,427.445L343.311,418.439L343.523,409.882L343.828,401.737L344.226,394.004L344.719,386.758L345.289,379.7L345.948,372.829L346.698,366.133L347.529,359.6L348.432,353.215L349.403,346.969L350.441,340.848L351.544,334.84L352.711,328.933L353.942,323.118L355.237,317.383L356.612,311.754L358.111,306.273L359.711,300.916L361.414,295.649L363.213,290.448L365.114,285.304L367.122,280.213L369.242,275.173L371.482,270.189L373.846,265.262L376.341,260.391L378.977,255.576L381.762,250.819L384.705,246.118L387.813,241.48L391.092,236.908L394.545,232.411L398.176,227.993L401.988,223.659L405.985,219.414L410.168,215.264L414.541,211.329L419.109,207.523L423.874,203.849L428.843,200.31L434.023,196.916L439.42,193.671L445.039,190.586L450.888,187.671L456.974,184.934L463.304,182.39L469.885,180.052L476.723,177.936L483.823,176.058L491.184,174.441L498.773,173.12L506.565,172.123L514.526,171.495L522.628,171.08L530.844,170.986L539.179,171.218L547.572,171.934L555.988,173.074L564.401,174.66L572.792,176.714L581.144,179.255L589.443,182.305L597.679,185.882L605.848,190.008L613.945,194.706L621.965,199.99L629.804,205.924L637.399,212.592L644.041,218.978L651.185,226.738L656.937,234.433L661.401,242.201L664.17,250.311L665.275,258.772L664.7,267.219L662.435,275.246L658.647,282.602L653.532,289.005L647.183,294.07L639.886,297.577L631.909,299.411L623.449,299.455L615.007,297.666L607.148,294.081L599.821,288.929L593.013,283.063L586.929,277.545L581.042,272.823L575.953,269.345L570.911,266.378L565.941,263.877L561.06,261.803L556.286,260.115L551.639,258.772L547.135,257.73L542.782,256.958L538.582,256.423L534.531,256.099L530.618,255.965L526.831,256.001L523.155,256.195L519.579,256.532L516.089,257.014L512.672,257.633L509.316,258.384L506.005,259.27L502.73,260.295L499.501,261.45L496.329,262.724L493.228,264.107L490.207,265.588L487.275,267.156L484.428,268.817L481.673,270.56L479.014,272.375L476.456,274.255L473.991,276.19L471.615,278.168L469.332,280.19L467.141,282.246L465.042,284.336L463.032,286.459L461.106,288.617L459.257,290.818L457.478,293.08L455.763,295.413L454.105,297.824L452.497,300.318L450.931,302.879L449.405,305.514L447.914,308.225L446.453,311.023L445.017,313.91L443.607,316.894L442.212,319.968L440.808,323.119L439.401,326.355L437.999,329.69L436.614,333.138L435.259,336.717L433.949,340.444L432.668,344.317L431.429,348.361L430.255,352.612L429.168,357.098L428.15,361.789L427.181,366.653L426.246,371.68L425.346,376.867L424.451,383.091L423.221,393L422.647,403.158L432.988,395.934L444.041,389.047L456.446,383.264L471.412,377.965L486.336,373.779L502.628,370.827L519.149,370.03L538.558,371.369Z" style="fill-rule:nonzero;"/>
        <path d="M527.268,449.636L538.347,451.775L548.815,455.164L558.732,459.761L568.11,465.564L576.939,472.625L585.103,480.956L592.432,490.537L598.72,501.302L603.749,513.141L607.307,525.904L609.23,539.61L609.186,556.026L606.746,572.011L602.194,586.883L595.95,600.163L588.436,611.621L579.992,621.231L570.868,629.118L561.248,635.42L551.228,640.261L540.785,643.739L529.747,645.898L517.769,646.635L505.794,645.817L494.66,643.517L484.046,639.808L473.77,634.64L463.753,627.858L454.092,619.309L445.028,608.912L436.772,596.696L429.863,582.796L424.957,567.599L422.486,551.666L422.64,535.642L424.793,522.394L428.51,510.108L433.461,498.864L439.493,488.724L446.498,479.708L454.332,471.814L462.887,465.043L472.122,459.412L481.994,454.929L492.488,451.624L503.626,449.558L515.459,448.856L527.268,449.636Z" style="fill:white;fill-rule:nonzero;"/>
        <path d="M500.01,790.401L507.56,790.996L513.654,791.188L519.811,791.218L525.969,791.188L532.063,790.996L539.613,790.402L547.268,789.509L553.312,788.709L559.264,787.758L565.126,786.662L570.903,785.42L576.599,784.036L582.219,782.51L587.769,780.842L593.253,779.031L598.678,777.077L604.049,774.978L609.375,772.736L614.661,770.361L619.916,767.844L625.145,765.178L630.354,762.356L635.55,759.367L640.154,756.561L644.706,753.649L650.049,750.059L654.908,746.621L659.892,742.926L665.113,738.861L668.916,735.946L675.565,731.387L682.955,728.321L690.795,726.809L698.782,726.869L706.607,728.5L713.971,731.646L720.59,736.188L726.175,741.962L730.479,748.758L733.339,756.318L734.757,764.367L734.798,772.64L733.285,780.841L729.765,788.394L725.267,795.285L720.083,800.958L714.811,805.537L709.015,810.035L702.446,814.816L695.556,819.464L688.566,823.824L681.469,827.986L674.283,831.958L667.044,835.741L659.775,839.34L652.481,842.756L645.163,845.999L637.825,849.073L630.471,851.985L623.102,854.742L615.722,857.349L608.332,859.811L600.929,862.09L593.513,864.16L586.084,866.02L578.64,867.667L571.183,869.104L563.711,870.328L556.391,871.319L549.396,872.095L541.789,872.779L534.231,873.247L526.849,873.5L519.811,873.572L512.773,873.5L505.391,873.247L497.834,872.779L490.226,872.095L483.232,871.319L475.912,870.328L468.439,869.104L460.982,867.667L453.539,866.02L446.109,864.16L438.693,862.09L431.291,859.811L423.901,857.349L416.521,854.742L409.152,851.985L401.798,849.073L394.459,845.999L387.142,842.756L379.847,839.34L372.579,835.741L365.34,831.959L358.153,827.986L351.057,823.824L344.067,819.464L337.177,814.817L330.607,810.035L324.811,805.537L319.54,800.958L314.355,795.285L309.858,788.394L306.338,780.841L304.825,772.64L304.866,764.367L306.284,756.318L309.144,748.758L313.448,741.962L319.033,736.188L325.652,731.646L333.016,728.5L340.841,726.869L348.827,726.809L356.667,728.321L364.058,731.387L370.707,735.946L374.51,738.861L379.73,742.926L384.715,746.621L389.573,750.059L394.917,753.648L399.469,756.561L404.073,759.367L409.269,762.356L414.478,765.178L419.707,767.844L424.961,770.36L430.248,772.736L435.573,774.978L440.945,777.077L446.37,779.031L451.854,780.842L457.403,782.51L463.023,784.036L468.719,785.42L474.496,786.662L480.359,787.758L486.31,788.709L492.354,789.509L500.01,790.401Z" style="fill-rule:nonzero;"/>
    </g>
</svg>
