<?xml version="1.0" encoding="UTF-8" standalone="no"?>
<!DOCTYPE svg PUBLIC "-//W3C//DTD SVG 1.1//EN" "http://www.w3.org/Graphics/SVG/1.1/DTD/svg11.dtd">
<svg width="100%" height="100%" viewBox="0 0 1024 1024" version="1.1" xmlns="http://www.w3.org/2000/svg" xmlns:xlink="http://www.w3.org/1999/xlink" xml:space="preserve" xmlns:serif="http://www.serif.com/" style="fill-rule:evenodd;clip-rule:evenodd;stroke-linejoin:round;stroke-miterlimit:2;">
    <g id="White" transform="matrix(1.81818,0,0,2.65152,-339.117,-1140.36)">
        <rect x="186.514" y="430.08" width="563.2" height="386.194" style="fill:white;"/>
    </g>
    <g transform="matrix(1.04673,0,0,1.86218,-47.9015,-450.952)">
        <g id="Red-Strpe" serif:id="Red Strpe">
            <rect x="45.763" y="338.824" width="978.286" height="356.571" style="fill:rgb(255,0,0);"/>
        </g>
    </g>
    <g id="Number" transform="matrix(0.484375,0,0,0.484375,264,264)">
        <path d="M511.999,0L578.83,4.379L644.515,17.446L707.934,38.973L768,68.594L823.685,105.802L874.038,149.96L918.196,200.313L955.404,255.999L985.026,316.066L1006.55,379.484L1019.62,445.171L1024,512L1019.62,578.829L1006.55,644.515L985.026,707.934L955.404,768.001L918.196,823.687L874.038,874.04L823.685,918.197L768,955.406L707.934,985.026L644.515,1006.55L578.83,1019.62L511.999,1024L445.17,1019.62L379.485,1006.55L316.066,985.026L256,955.406L200.314,918.197L149.961,874.04L105.803,823.687L68.596,768.001L38.974,707.934L17.446,644.515L4.381,578.829L0,512L4.381,445.171L17.446,379.484L38.974,316.066L68.596,255.999L105.803,200.313L149.961,149.96L200.314,105.802L256,68.594L316.066,38.973L379.485,17.446L445.17,4.379L511.999,0Z" style="fill:white;fill-rule:nonzero;"/>
        <path d="M609.98,786.185L603.585,780.935L598.336,774.54L594.436,767.243L592.034,759.326L591.122,751.073L591.122,272.928L592.034,264.674L594.436,256.756L598.336,249.46L603.585,243.064L609.98,237.816L617.276,233.915L625.194,231.513L633.427,230.703L641.661,231.513L649.578,233.915L656.875,237.816L663.356,243.064L668.883,249.46L673.093,256.756L675.628,264.673L676.454,272.928L676.454,751.071L675.628,759.327L673.093,767.243L668.883,774.54L663.356,780.935L656.875,786.185L649.578,790.084L641.661,792.486L633.427,793.296L625.194,792.486L617.276,790.084L609.98,786.185Z" style="fill-rule:nonzero;"/>
        <path d="M356.521,786.185L350.126,780.935L344.877,774.54L340.977,767.243L338.575,759.326L337.663,751.073L337.663,272.928L338.575,264.674L340.977,256.756L344.877,249.46L350.126,243.064L356.521,237.816L363.818,233.915L371.736,231.513L379.97,230.703L388.204,231.513L396.121,233.915L403.416,237.816L409.898,243.064L415.425,249.46L419.635,256.756L422.17,264.673L422.997,272.928L422.997,751.071L422.17,759.327L419.635,767.243L415.425,774.54L409.898,780.935L403.416,786.185L396.121,790.084L388.204,792.486L379.97,793.296L371.736,792.486L363.818,790.084L356.521,786.185Z" style="fill-rule:nonzero;"/>
    </g>
</svg>
