<?xml version="1.0" encoding="UTF-8" standalone="no"?>
<!DOCTYPE svg PUBLIC "-//W3C//DTD SVG 1.1//EN" "http://www.w3.org/Graphics/SVG/1.1/DTD/svg11.dtd">
<svg width="100%" height="100%" viewBox="0 0 1024 1024" version="1.1" xmlns="http://www.w3.org/2000/svg" xmlns:xlink="http://www.w3.org/1999/xlink" xml:space="preserve" xmlns:serif="http://www.serif.com/" style="fill-rule:evenodd;clip-rule:evenodd;stroke-linejoin:round;stroke-miterlimit:2;">
    <g id="White" transform="matrix(1.81818,0,0,2.65152,-339.117,-1140.36)">
        <rect x="186.514" y="430.08" width="563.2" height="386.194" style="fill:white;"/>
    </g>
    <g id="Purple-Strpe" serif:id="Purple Strpe" transform="matrix(1.04673,0,0,1.86218,-47.9015,-450.952)">
        <rect x="45.763" y="338.824" width="978.286" height="356.571" style="fill:rgb(122,40,138);"/>
    </g>
    <g id="_12" serif:id="12" transform="matrix(0.484375,0,0,0.484375,264,264)">
        <path d="M512,0L578.829,4.38L644.515,17.446L707.934,38.974L768,68.595L823.685,105.803L874.038,149.961L918.196,200.314L955.404,256L985.026,316.067L1006.55,379.485L1019.62,445.171L1024,512.001L1019.62,578.83L1006.55,644.515L985.026,707.935L955.404,768L918.196,823.686L874.038,874.039L823.685,918.198L768,955.405L707.934,985.026L644.515,1006.55L578.829,1019.62L512,1024L445.171,1019.62L379.485,1006.55L316.066,985.026L256,955.405L200.315,918.198L149.962,874.039L105.803,823.686L68.595,768L38.974,707.935L17.446,644.515L4.38,578.83L0,512.001L4.38,445.171L17.446,379.485L38.974,316.067L68.595,256L105.803,200.314L149.962,149.961L200.315,105.803L256,68.595L316.066,38.974L379.485,17.446L445.171,4.38L512,0Z" style="fill:white;fill-rule:nonzero;"/>
        <path d="M281.865,786.185L275.469,780.936L270.22,774.54L266.32,767.243L263.918,759.326L263.007,751.071L263.007,272.927L263.918,264.674L266.32,256.757L270.22,249.46L275.469,243.066L281.865,237.816L289.161,233.916L297.079,231.514L305.312,230.703L313.546,231.514L321.463,233.916L328.76,237.816L335.242,243.066L340.768,249.46L344.978,256.757L347.513,264.673L348.34,272.927L348.34,751.071L347.513,759.326L344.978,767.243L340.768,774.54L335.242,780.936L328.76,786.185L321.463,790.084L313.546,792.487L305.312,793.297L297.079,792.487L289.161,790.084L281.865,786.185Z" style="fill-rule:nonzero;"/>
        <path d="M424.181,374.749L428.32,359.898L433.724,346.176L439.647,333.382L445.907,321.436L452.486,310.297L459.499,300.007L466.931,290.556L474.734,281.92L482.855,274.071L491.245,266.977L499.863,260.6L508.675,254.903L517.66,249.848L526.81,245.402L536.128,241.542L545.614,238.258L555.251,235.559L565.005,233.453L574.84,231.943L584.717,231.028L594.602,230.703L604.459,230.959L614.256,231.785L623.961,233.165L633.546,235.085L642.984,237.526L652.248,240.475L661.315,243.916L670.161,247.835L678.76,252.221L687.086,257.062L695.111,262.35L702.798,268.069L710.112,274.202L717.019,280.729L723.486,287.625L729.48,294.861L734.974,302.4L739.944,310.2L744.373,318.214L748.25,326.391L751.573,334.676L754.35,343.01L756.598,351.335L758.34,359.595L759.613,367.736L760.454,375.728L760.904,383.562L760.994,391.241L760.746,398.77L760.178,406.155L759.298,413.403L758.111,420.524L756.615,427.524L754.805,434.406L752.676,441.171L750.218,447.816L747.428,454.331L744.305,460.7L740.854,466.91L737.09,472.946L733.03,478.794L728.701,484.455L724.127,489.936L719.326,495.252L714.311,500.434L709.089,505.507L703.656,510.484L698.012,515.39L692.163,520.248L686.103,525.066L679.839,529.857L673.383,534.634L666.75,539.405L659.96,544.173L653.037,548.944L646.009,553.711L638.858,558.459L631.594,563.172L624.261,567.855L616.904,572.51L609.567,577.14L602.295,581.748L595.129,586.333L588.109,590.9L581.274,595.451L574.658,599.984L568.293,604.498L562.205,608.986L556.416,613.441L550.944,617.852L545.801,622.209L540.986,626.504L536.496,630.725L532.324,634.868L528.465,638.923L524.913,642.885L521.659,646.746L518.693,650.5L516.005,654.147L513.58,657.684L511.406,661.113L509.464,664.439L507.737,667.667L506.206,670.812L504.852,673.884L503.657,676.901L502.605,679.875L501.684,682.817L500.883,685.73L500.194,688.626L499.607,691.504L499.116,694.368L498.714,697.219L498.395,700.055L498.152,702.871L497.981,705.66L498.062,708.157L504.468,708.175L510.671,708.181L517.343,708.185L701.882,708.185L723.033,708.165L731.251,708.975L739.153,711.372L746.436,715.265L752.905,720.446L758.421,726.692L762.623,733.913L765.153,741.912L765.979,750.289L765.153,758.669L762.71,766.726L758.741,774.149L753.4,780.657L746.892,785.998L739.468,789.967L731.411,792.411L723.033,793.236L713.303,793.298L483.028,793.297L476.736,793.058L468.551,792.331L462.437,791.512L455.774,790.205L449.354,788.267L442.649,785.401L435.725,780.944L429.409,775.222L424.368,768.877L420.775,762.669L418.378,757.066L416.808,752.173L415.754,747.887L415.013,744.03L414.463,740.429L414.032,736.946L413.681,733.471L413.391,729.922L413.152,726.235L412.966,722.368L412.842,718.285L412.794,713.979L412.84,709.46L412.997,704.743L413.281,699.84L413.712,694.766L414.307,689.534L415.082,684.156L416.055,678.646L417.244,673.021L418.663,667.294L420.328,661.481L422.251,655.598L424.435,649.647L426.874,643.637L429.541,637.573L432.442,631.478L435.582,625.374L438.962,619.285L442.582,613.23L446.44,607.224L450.534,601.279L454.864,595.405L459.427,589.608L464.222,583.89L469.249,578.257L474.508,572.71L479.999,567.25L485.725,561.878L491.687,556.596L497.881,551.404L504.294,546.298L510.909,541.269L517.709,536.313L524.673,531.425L531.778,526.598L538.994,521.822L546.285,517.086L553.618,512.386L560.953,507.711L568.253,503.056L575.474,498.417L582.577,493.79L589.525,489.18L596.338,484.607L602.998,480.088L609.468,475.631L615.711,471.247L621.692,466.951L627.379,462.75L632.745,458.658L637.765,454.688L642.417,450.85L646.689,447.16L650.57,443.631L654.058,440.276L657.151,437.1L659.862,434.107L662.214,431.293L664.244,428.644L665.993,426.127L667.515,423.689L668.857,421.275L670.059,418.825L671.144,416.288L672.128,413.624L673.015,410.805L673.802,407.808L674.48,404.631L675.038,401.276L675.465,397.759L675.747,394.103L675.871,390.334L675.827,386.493L675.606,382.618L675.2,378.753L674.608,374.942L673.822,371.209L672.839,367.557L671.649,363.983L670.246,360.482L668.619,357.049L666.756,353.676L664.646,350.364L662.275,347.112L659.634,343.925L656.713,340.811L653.51,337.786L650.027,334.867L646.272,332.075L642.259,329.432L638.013,326.964L633.566,324.697L628.958,322.654L624.225,320.857L619.401,319.322L614.518,318.058L609.605,317.073L604.683,316.373L599.772,315.958L594.887,315.831L590.037,315.99L585.227,316.434L580.457,317.167L575.725,318.188L571.026,319.505L566.355,321.122L561.719,323.042L557.148,325.263L552.67,327.781L548.305,330.602L544.063,333.738L539.941,337.221L535.929,341.097L532.011,345.432L528.17,350.317L524.394,355.859L520.648,362.166L516.905,369.353L513.183,377.561L509.077,386.853L504.018,397.183L498.935,406.801L493.67,413.239L487.587,418.561L480.582,422.5L472.633,424.852L464.123,425.549L455.647,424.618L447.529,422.099L440.08,418.102L433.589,412.785L428.4,406.344L424.972,398.996L423.444,391.036L423.329,382.849L424.181,374.749Z" style="fill-rule:nonzero;"/>
    </g>
</svg>
