<?xml version="1.0" encoding="UTF-8" standalone="no"?>
<!DOCTYPE svg PUBLIC "-//W3C//DTD SVG 1.1//EN" "http://www.w3.org/Graphics/SVG/1.1/DTD/svg11.dtd">
<svg width="100%" height="100%" viewBox="0 0 1024 1024" version="1.1" xmlns="http://www.w3.org/2000/svg" xmlns:xlink="http://www.w3.org/1999/xlink" xml:space="preserve" xmlns:serif="http://www.serif.com/" style="fill-rule:evenodd;clip-rule:evenodd;stroke-linejoin:round;stroke-miterlimit:2;">
    <g id="White" transform="matrix(1.81818,0,0,2.65152,-339.117,-1140.36)">
        <rect x="186.514" y="430.08" width="563.2" height="386.194" style="fill:white;"/>
    </g>
    <g id="Yellow-Strpe" serif:id="Yellow Strpe" transform="matrix(1.04673,0,0,1.86219,-47.9015,-450.952)">
        <rect x="45.763" y="338.824" width="978.286" height="356.571" style="fill:rgb(170,157,14);"/>
    </g>
    <g id="Number" transform="matrix(0.484375,0,0,0.484375,264,264)">
        <path d="M512,0L445.171,4.379L379.485,17.445L316.066,38.972L256,68.594L200.314,105.802L149.961,149.96L105.803,200.313L68.595,255.999L38.974,316.066L17.446,379.484L4.38,445.17L0,512L4.38,578.83L17.446,644.515L38.974,707.934L68.595,768L105.803,823.686L149.961,874.039L200.314,918.197L256,955.406L316.066,985.027L379.485,1006.55L445.171,1019.62L512,1024L578.829,1019.62L644.515,1006.55L707.934,985.027L768,955.406L823.686,918.197L874.039,874.039L918.197,823.686L955.405,768L985.026,707.934L1006.55,644.515L1019.62,578.83L1024,512L1019.62,445.17L1006.55,379.484L985.026,316.066L955.405,255.999L918.197,200.313L874.039,149.96L823.686,105.802L768,68.594L707.934,38.972L644.515,17.445L578.829,4.379L512,0Z" style="fill:white;fill-rule:nonzero;"/>
        <path d="M484.388,790.403L491.938,790.998L498.032,791.19L504.188,791.219L510.347,791.19L516.441,790.998L523.991,790.403L531.646,789.511L537.69,788.71L543.642,787.76L549.504,786.664L555.281,785.422L560.977,784.038L566.597,782.512L572.147,780.844L577.631,779.033L583.056,777.079L588.427,774.98L593.753,772.738L599.039,770.362L604.294,767.845L609.523,765.18L614.732,762.358L619.928,759.368L624.531,756.563L629.084,753.65L634.427,750.061L639.286,746.623L644.27,742.928L649.491,738.863L653.293,735.948L659.943,731.389L667.333,728.323L675.173,726.811L683.16,726.871L690.985,728.502L698.348,731.648L704.968,736.19L710.553,741.963L714.857,748.76L717.717,756.32L719.135,764.369L719.175,772.642L717.663,780.843L714.143,788.397L709.645,795.287L704.461,800.96L699.189,805.538L693.393,810.037L686.824,814.818L679.934,819.465L672.944,823.826L665.847,827.988L658.661,831.96L651.422,835.743L644.153,839.34L636.859,842.758L629.541,846.001L622.203,849.075L614.849,851.987L607.48,854.743L600.1,857.351L592.71,859.814L585.307,862.092L577.892,864.161L570.462,866.021L563.019,867.669L555.561,869.106L548.088,870.33L540.769,871.321L533.774,872.097L526.167,872.781L518.609,873.249L511.227,873.501L504.189,873.574L497.151,873.501L489.769,873.249L482.212,872.781L474.605,872.097L467.609,871.321L460.29,870.33L452.818,869.106L445.36,867.669L437.917,866.021L430.487,864.161L423.071,862.092L415.669,859.814L408.279,857.351L400.899,854.743L393.53,851.987L386.176,849.075L378.838,846.001L371.52,842.758L364.225,839.34L356.956,835.743L349.718,831.96L342.531,827.988L335.435,823.826L328.445,819.465L321.555,814.818L314.986,810.037L309.19,805.538L303.918,800.96L298.733,795.287L294.236,788.397L290.716,780.843L289.203,772.642L289.244,764.369L290.662,756.32L293.522,748.76L297.826,741.963L303.411,736.19L310.03,731.648L317.394,728.502L325.219,726.871L333.205,726.811L341.046,728.323L348.436,731.389L355.085,735.948L358.888,738.863L364.108,742.928L369.093,746.623L373.952,750.061L379.295,753.65L383.847,756.563L388.451,759.368L393.647,762.358L398.856,765.18L404.085,767.845L409.339,770.362L414.626,772.738L419.951,774.98L425.323,777.079L430.748,779.033L436.232,780.844L441.781,782.512L447.401,784.038L453.097,785.422L458.874,786.664L464.737,787.76L470.688,788.71L476.732,789.511L484.388,790.403Z" style="fill-rule:nonzero;"/>
        <path d="M485.373,527.828L463.81,523.284L443.46,515.954L424.562,506.08L407.308,493.921L391.85,479.735L378.308,463.762L366.79,446.229L357.367,427.321L350.074,407.2L345.032,386.068L342.379,364.161L342.223,339.986L344.699,316.614L349.51,294.364L356.882,273.185L366.885,252.418L379.616,233.026L395.123,215.596L413.3,200.429L433.983,187.957L456.894,178.626L481.61,172.879L507.427,171.099L533.09,173.239L556.964,179.392L578.619,188.961L598.288,201.583L615.775,216.793L629.78,232.804L643.256,251.743L653.548,269.729L661.725,288.574L667.891,307.382L672.554,326.528L675.856,347.985L677.305,362.854L678.52,377.423L679.491,391.553L680.075,405.065L680.304,417.839L680.375,429.868L680.531,441.337L680.684,452.084L680.78,462.214L680.752,471.752L680.621,480.758L680.408,489.314L680.103,497.458L679.705,505.192L679.212,512.44L678.642,519.496L677.983,526.368L677.233,533.063L676.403,539.597L675.499,545.981L674.527,552.229L673.49,558.349L672.387,564.357L671.22,570.263L669.989,576.078L668.694,581.814L667.319,587.443L665.82,592.922L664.219,598.281L662.517,603.547L660.718,608.749L658.817,613.893L656.809,618.984L654.688,624.024L652.449,629.008L650.085,633.936L647.589,638.806L644.954,643.619L642.169,648.378L639.226,653.078L636.118,657.717L632.839,662.289L629.386,666.786L625.755,671.204L621.943,675.537L617.946,679.781L613.763,683.932L609.389,687.868L604.822,691.673L600.057,695.347L595.088,698.886L589.908,702.281L584.512,705.525L578.892,708.61L573.043,711.526L566.957,714.263L560.627,716.807L554.046,719.144L547.208,721.261L540.108,723.139L532.747,724.757L525.158,726.076L517.367,727.074L509.405,727.7L501.303,728.116L493.087,728.21L484.752,727.979L476.359,727.262L467.943,726.122L459.53,724.537L451.139,722.483L442.787,719.941L434.488,716.892L426.252,713.315L418.083,709.19L409.986,704.49L401.966,699.206L394.127,693.272L386.532,686.604L379.89,680.219L372.746,672.458L366.994,664.763L362.53,656.996L359.761,648.885L358.657,640.424L359.232,631.979L361.496,623.951L365.284,616.594L370.399,610.192L376.748,605.127L384.045,601.62L392.022,599.786L400.482,599.741L408.924,601.531L416.783,605.115L424.11,610.267L430.918,616.134L437.002,621.652L442.889,626.374L447.979,629.851L453.02,632.818L457.99,635.318L462.871,637.393L467.645,639.08L472.292,640.425L476.796,641.466L481.149,642.239L485.349,642.774L489.401,643.098L493.313,643.232L497.1,643.195L500.776,643.003L504.352,642.664L507.842,642.182L511.259,641.563L514.615,640.813L517.926,639.926L521.201,638.902L524.43,637.746L527.602,636.472L530.703,635.09L533.724,633.609L536.656,632.04L539.502,630.38L542.258,628.637L544.917,626.822L547.475,624.942L549.941,623.008L552.316,621.027L554.599,619.007L556.79,616.95L558.889,614.861L560.899,612.738L562.825,610.58L564.674,608.379L566.453,606.116L568.168,603.784L569.826,601.373L571.434,598.879L573,596.317L574.526,593.683L576.017,590.97L577.478,588.174L578.914,585.287L580.324,582.303L581.719,579.228L583.123,576.077L584.53,572.842L585.932,569.506L587.317,566.059L588.672,562.479L589.983,558.752L591.263,554.879L592.503,550.835L593.677,546.585L594.763,542.097L595.781,537.408L596.75,532.545L597.685,527.517L598.585,522.33L599.48,516.105L600.71,506.196L601.284,496.039L590.943,503.261L579.891,510.15L567.485,515.932L552.519,521.233L537.595,525.418L521.303,528.37L504.782,529.166L485.373,527.828Z" style="fill-rule:nonzero;"/>
        <path d="M496.663,449.561L508.473,450.341L520.305,449.638L531.443,447.572L541.937,444.267L551.809,439.785L561.045,434.152L569.599,427.383L577.433,419.487L584.438,410.471L590.47,400.333L595.421,389.087L599.138,376.803L601.291,363.555L601.445,347.53L598.974,331.597L594.068,316.4L587.158,302.5L578.903,290.284L569.839,279.887L560.178,271.337L550.161,264.557L539.885,259.388L529.271,255.68L518.137,253.379L506.162,252.562L494.184,253.299L483.146,255.456L472.703,258.936L462.683,263.776L453.063,270.079L443.939,277.966L435.495,287.576L427.981,299.034L421.737,312.314L417.185,327.184L414.745,343.17L414.701,359.585L416.624,373.293L420.182,386.055L425.211,397.894L431.499,408.661L438.828,418.24L446.992,426.571L455.821,433.632L465.199,439.436L475.116,444.032L485.584,447.421L496.663,449.561Z" style="fill:white;fill-rule:nonzero;"/>
    </g>
</svg>
