<?xml version="1.0" encoding="UTF-8" standalone="no"?>
<!DOCTYPE svg PUBLIC "-//W3C//DTD SVG 1.1//EN" "http://www.w3.org/Graphics/SVG/1.1/DTD/svg11.dtd">
<svg width="100%" height="100%" viewBox="0 0 1024 1024" version="1.1" xmlns="http://www.w3.org/2000/svg" xmlns:xlink="http://www.w3.org/1999/xlink" xml:space="preserve" xmlns:serif="http://www.serif.com/" style="fill-rule:evenodd;clip-rule:evenodd;stroke-linejoin:round;stroke-miterlimit:2;">
    <g id="White" transform="matrix(1.81818,0,0,2.65152,-339.117,-1140.36)">
        <rect x="186.514" y="430.08" width="563.2" height="386.194" style="fill:white;"/>
    </g>
    <g id="Blue-Stripe" serif:id="Blue Stripe" transform="matrix(1.04673,0,0,1.86218,-47.9015,-450.952)">
        <g>
            <rect x="45.763" y="338.824" width="978.286" height="356.571" style="fill:rgb(31,104,224);"/>
        </g>
    </g>
    <g id="Number" transform="matrix(0.484375,0,0,0.484375,264,264)">
        <path d="M512,0L578.83,4.379L644.516,17.446L707.934,38.973L768,68.594L823.686,105.802L874.039,149.96L918.197,200.313L955.405,255.999L985.026,316.066L1006.55,379.484L1019.62,445.17L1024,512L1019.62,578.83L1006.55,644.515L985.026,707.934L955.405,767.999L918.197,823.687L874.039,874.038L823.686,918.198L768,955.405L707.934,985.026L644.516,1006.55L578.83,1019.62L512,1024L445.171,1019.62L379.485,1006.55L316.066,985.026L256,955.405L200.314,918.198L149.961,874.038L105.803,823.687L68.595,767.999L38.974,707.934L17.446,644.515L4.38,578.83L0,512L4.38,445.17L17.446,379.484L38.974,316.066L68.595,255.999L105.803,200.313L149.961,149.96L200.314,105.802L256,68.594L316.066,38.973L379.485,17.446L445.171,4.379L512,0Z" style="fill:white;fill-rule:nonzero;"/>
        <path d="M261.34,786.186L254.945,780.937L249.696,774.541L245.796,767.244L243.394,759.327L242.482,751.072L242.482,272.928L243.394,264.675L245.796,256.757L249.696,249.461L254.945,243.065L261.34,237.816L268.637,233.916L276.554,231.515L284.788,230.703L293.022,231.515L300.939,233.916L308.236,237.816L314.717,243.065L320.244,249.461L324.454,256.756L326.989,264.673L327.816,272.928L327.816,751.072L326.989,759.327L324.454,767.244L320.244,774.541L314.717,780.937L308.236,786.186L300.939,790.085L293.022,792.486L284.788,793.298L276.554,792.486L268.637,790.085L261.34,786.186Z" style="fill-rule:nonzero;"/>
        <path d="M428.685,518.491L428.795,526.378L428.924,534.265L429.082,542.151L429.29,550.036L429.552,557.919L429.87,565.801L430.256,573.679L430.719,581.554L431.269,589.423L431.918,597.284L432.68,605.135L433.569,612.972L434.604,620.793L435.799,628.59L437.175,636.356L438.751,644.085L440.544,651.766L442.574,659.388L444.857,666.94L447.406,674.405L450.234,681.767L453.347,689.015L456.75,696.13L460.445,703.1L464.432,709.906L468.707,716.535L473.267,722.971L478.106,729.2L483.215,735.209L488.585,740.987L494.204,746.521L500.062,751.803L506.146,756.823L512.444,761.573L518.943,766.041L525.632,770.221L532.499,774.104L539.532,777.673L546.721,780.918L554.054,783.825L561.518,786.372L569.1,788.547L576.783,790.334L584.547,791.716L592.375,792.688L600.243,793.236L605.079,793.297L609.914,793.236L617.782,792.688L625.61,791.716L633.375,790.334L641.057,788.547L648.639,786.372L656.103,783.825L663.436,780.918L670.625,777.673L677.659,774.104L684.525,770.221L691.214,766.041L697.713,761.573L704.011,756.823L710.095,751.803L715.953,746.521L721.572,740.987L726.942,735.209L732.052,729.2L736.89,722.971L741.45,716.535L745.726,709.906L749.712,703.1L753.407,696.13L756.81,689.015L759.923,681.767L762.751,674.405L765.3,666.94L767.583,659.388L769.613,651.766L771.406,644.085L772.982,636.356L774.358,628.59L775.554,620.793L776.588,612.972L777.477,605.135L778.239,597.284L778.888,589.423L779.438,581.554L779.901,573.679L780.287,565.801L780.606,557.919L780.867,550.036L781.075,542.151L781.234,534.265L781.363,526.378L781.472,518.491L781.519,512.002L781.458,502.715L781.337,494.829L781.203,486.942L781.037,479.056L780.817,471.172L780.543,463.287L780.209,455.406L779.804,447.529L779.32,439.656L778.745,431.789L778.065,423.931L777.268,416.082L776.336,408.25L775.254,400.437L774.003,392.649L772.565,384.893L770.921,377.179L769.051,369.515L766.94,361.915L764.573,354.392L761.936,346.956L759.021,339.627L755.823,332.417L752.338,325.34L748.566,318.413L744.508,311.649L740.166,305.065L735.544,298.674L730.647,292.489L725.483,286.527L720.06,280.799L714.389,275.317L708.478,270.094L702.341,265.141L695.987,260.466L689.429,256.082L682.68,252.002L675.75,248.233L668.653,244.792L661.401,241.691L654.007,238.944L646.486,236.567L638.855,234.575L631.13,232.98L623.333,231.792L616.474,231.117L610.11,230.779L605.078,230.702L600.047,230.779L593.683,231.117L586.824,231.792L579.027,232.98L571.302,234.575L563.671,236.567L556.15,238.944L548.756,241.691L541.504,244.792L534.407,248.233L527.477,252.002L520.728,256.082L514.17,260.466L507.817,265.141L501.679,270.094L495.769,275.317L490.097,280.799L484.674,286.527L479.51,292.489L474.614,298.674L469.991,305.065L465.649,311.649L461.591,318.413L457.819,325.34L454.334,332.417L451.136,339.627L448.221,346.956L445.585,354.392L443.217,361.915L441.106,369.515L439.236,377.179L437.592,384.893L436.154,392.649L434.903,400.437L433.821,408.25L432.889,416.082L432.092,423.931L431.413,431.789L430.837,439.656L430.353,447.529L429.949,455.406L429.615,463.287L429.34,471.172L429.12,479.056L428.954,486.942L428.82,494.829L428.699,502.715L428.639,512.002L428.685,518.491Z" style="fill-rule:nonzero;"/>
        <path d="M513.759,504.409L513.835,499.336L513.918,494.262L514.005,489.188L514.104,484.115L514.225,479.042L514.371,473.969L514.542,468.897L514.738,463.826L514.963,458.758L515.219,453.688L515.513,448.622L515.846,443.56L516.225,438.499L516.654,433.442L517.138,428.391L517.686,423.346L518.306,418.309L519.005,413.283L519.795,408.271L520.688,403.274L521.695,398.301L522.832,393.356L524.112,388.445L525.553,383.58L527.17,378.769L528.975,374.026L530.981,369.365L533.194,364.798L535.62,360.342L538.262,356.009L541.121,351.817L544.196,347.781L547.483,343.916L550.975,340.234L554.665,336.751L558.541,333.476L562.594,330.423L566.811,327.602L571.184,325.028L575.7,322.716L580.35,320.684L585.123,318.962L590.004,317.578L594.975,316.561L600.01,315.936L605.078,315.721L610.147,315.936L615.182,316.561L620.153,317.578L625.034,318.962L629.807,320.684L634.457,322.716L638.974,325.028L643.346,327.602L647.564,330.423L651.616,333.476L655.492,336.751L659.182,340.234L662.674,343.916L665.961,347.781L669.036,351.817L671.895,356.009L674.537,360.342L676.963,364.798L679.176,369.365L681.182,374.026L682.987,378.769L684.604,383.58L686.045,388.445L687.326,393.356L688.462,398.301L689.47,403.274L690.362,408.271L691.152,413.283L691.851,418.309L692.471,423.346L693.019,428.391L693.504,433.442L693.932,438.499L694.311,443.56L694.644,448.622L694.938,453.688L695.195,458.758L695.419,463.826L695.615,468.897L695.786,473.969L695.932,479.042L696.053,484.115L696.152,489.188L696.239,494.262L696.323,499.336L696.398,504.409L696.441,512.002L696.429,512.002L696.377,519.633L696.301,524.707L696.22,529.781L696.131,534.856L696.026,539.928L695.899,545.001L695.748,550.075L695.573,555.145L695.372,560.216L695.142,565.285L694.879,570.353L694.579,575.419L694.239,580.482L693.855,585.542L693.42,590.598L692.928,595.649L692.373,600.693L691.747,605.729L691.041,610.755L690.244,615.766L689.346,620.76L688.332,625.733L687.188,630.676L685.9,635.586L684.45,640.448L682.822,645.254L681.002,649.991L678.977,654.644L676.737,659.197L674.278,663.637L671.597,667.944L668.692,672.105L665.568,676.104L662.232,679.927L658.693,683.563L654.962,687.003L651.052,690.237L646.976,693.258L642.744,696.059L638.369,698.627L633.858,700.95L629.22,703.01L624.464,704.778L619.6,706.221L614.643,707.306L609.618,708.003L605.079,708.284L600.539,708.003L595.514,707.306L590.558,706.221L585.693,704.778L580.937,703.01L576.3,700.95L571.789,698.627L567.413,696.059L563.181,693.258L559.105,690.237L555.195,687.003L551.464,683.563L547.925,679.927L544.589,676.104L541.465,672.105L538.561,667.944L535.879,663.637L533.42,659.197L531.18,654.644L529.155,649.991L527.335,645.254L525.707,640.448L524.257,635.586L522.969,630.676L521.825,625.733L520.812,620.76L519.913,615.766L519.117,610.755L518.41,605.729L517.784,600.693L517.229,595.649L516.738,590.598L516.303,585.542L515.918,580.482L515.578,575.419L515.279,570.353L515.016,565.285L514.785,560.216L514.584,555.145L514.409,550.075L514.258,545.001L514.131,539.928L514.026,534.856L513.937,529.781L513.856,524.707L513.781,519.633L513.728,512.002L513.717,512.002L513.759,504.409Z" style="fill:white;fill-rule:nonzero;"/>
    </g>
</svg>
