<?xml version="1.0" encoding="UTF-8" standalone="no"?>
<!DOCTYPE svg PUBLIC "-//W3C//DTD SVG 1.1//EN" "http://www.w3.org/Graphics/SVG/1.1/DTD/svg11.dtd">
<svg width="100%" height="100%" viewBox="0 0 1024 1024" version="1.1" xmlns="http://www.w3.org/2000/svg" xmlns:xlink="http://www.w3.org/1999/xlink" xml:space="preserve" xmlns:serif="http://www.serif.com/" style="fill-rule:evenodd;clip-rule:evenodd;stroke-linejoin:round;stroke-miterlimit:2;">
    <g id="White" transform="matrix(1.81818,0,0,2.65152,-339.117,-1140.36)">
        <rect x="186.514" y="430.08" width="563.2" height="386.194" style="fill:white;"/>
    </g>
    <g id="Yellow" transform="matrix(1.04673,0,0,2.8718,-47.9015,-973.033)">
        <rect x="45.763" y="338.824" width="978.286" height="356.571" style="fill:rgb(170,157,14);"/>
    </g>
    <g id="Number" transform="matrix(0.484375,0,0,0.484375,264,264)">
        <path d="M445.17,4.38L379.485,17.446L316.066,38.973L256,68.594L200.314,105.803L149.962,149.96L105.803,200.314L68.595,256L38.973,316.067L17.446,379.484L4.379,445.17L0,512.001L4.379,578.83L17.446,644.516L38.973,707.935L68.595,768L105.803,823.686L149.962,874.04L200.314,918.198L256,955.406L316.066,985.027L379.485,1006.56L445.17,1019.62L512,1024L578.829,1019.62L644.515,1006.56L707.934,985.027L767.999,955.406L823.687,918.198L874.039,874.04L918.197,823.686L955.405,768L985.026,707.935L1006.55,644.516L1019.62,578.83L1024,512.001L1019.62,445.17L1006.55,379.484L985.026,316.067L955.405,256L918.197,200.314L874.039,149.96L823.687,105.803L767.999,68.594L707.934,38.973L644.515,17.446L578.829,4.38L512,0L445.17,4.38Z" style="fill:white;fill-rule:nonzero;"/>
        <path d="M554.87,272.928L554.87,751.072L554.504,756.642L553.416,762.116L551.623,767.4L549.154,772.406L546.053,777.046L542.373,781.242L538.178,784.922L533.537,788.023L528.532,790.491L523.246,792.286L517.773,793.373L512.204,793.738L506.634,793.373L501.16,792.286L495.875,790.491L490.87,788.023L486.229,784.922L482.033,781.242L478.355,777.046L475.252,772.406L472.785,767.4L470.99,762.116L469.902,756.642L469.537,751.072L469.537,272.928L469.902,267.359L470.99,261.886L472.785,256.601L475.252,251.595L478.355,246.955L482.033,242.759L486.229,239.078L490.87,235.977L495.875,233.51L501.16,231.716L506.634,230.627L512.204,230.262L517.773,230.627L523.246,231.716L528.532,233.51L533.537,235.977L538.178,239.078L542.373,242.759L546.053,246.955L549.154,251.595L551.623,256.601L553.416,261.886L554.504,267.359L554.87,272.928Z" style="fill-rule:nonzero;"/>
    </g>
</svg>
