<?xml version="1.0" encoding="UTF-8" standalone="no"?>
<!DOCTYPE svg PUBLIC "-//W3C//DTD SVG 1.1//EN" "http://www.w3.org/Graphics/SVG/1.1/DTD/svg11.dtd">
<svg width="100%" height="100%" viewBox="0 0 1024 1024" version="1.1" xmlns="http://www.w3.org/2000/svg" xmlns:xlink="http://www.w3.org/1999/xlink" xml:space="preserve" xmlns:serif="http://www.serif.com/" style="fill-rule:evenodd;clip-rule:evenodd;stroke-linejoin:round;stroke-miterlimit:2;">
    <g id="White" transform="matrix(1.81818,0,0,2.65152,-339.117,-1140.36)">
        <rect x="186.514" y="430.08" width="563.2" height="386.194" style="fill:white;"/>
    </g>
    <g id="Purple" transform="matrix(1.04673,0,0,2.8718,-47.9015,-973.033)">
        <rect x="45.763" y="338.824" width="978.286" height="356.571" style="fill:rgb(122,40,138);"/>
    </g>
    <g id="Number" transform="matrix(0.484375,0,0,0.484375,264,264)">
        <path d="M512,0L445.171,4.38L379.485,17.445L316.066,38.973L256,68.595L200.315,105.803L149.962,149.961L105.803,200.314L68.595,256L38.974,316.067L17.446,379.484L4.38,445.171L0,512L4.38,578.83L17.446,644.516L38.974,707.934L68.595,768L105.803,823.686L149.962,874.038L200.315,918.197L256,955.406L316.066,985.027L379.485,1006.55L445.171,1019.62L512,1024L578.83,1019.62L644.516,1006.55L707.934,985.027L768,955.406L823.686,918.197L874.039,874.038L918.196,823.686L955.405,768L985.026,707.934L1006.55,644.516L1019.62,578.83L1024,512L1019.62,445.171L1006.55,379.484L985.026,316.067L955.405,256L918.196,200.314L874.039,149.961L823.686,105.803L768,68.595L707.934,38.973L644.516,17.445L578.83,4.38L512,0Z" style="fill:white;fill-rule:nonzero;"/>
        <path d="M391.736,652.541L522.509,652.729L522.525,758.633L524.695,766.724L528.625,774.181L534.054,780.699L540.669,786.048L548.217,790.024L556.406,792.471L564.923,793.298L573.439,792.471L581.628,790.024L589.176,786.048L595.791,780.699L601.22,774.181L605.254,766.744L607.734,758.633L607.719,652.113L626.465,652.113L634.857,650.994L642.927,648.547L650.363,644.571L656.881,639.223L662.231,632.705L666.206,625.269L668.654,617.199L669.48,608.807L668.654,600.415L666.119,592.404L661.91,585.172L656.386,578.916L649.907,573.725L642.612,569.827L634.697,567.425L626.465,566.9L607.642,566.9L607.148,405.615L606.821,333.879L606.147,313.92L605.065,299.644L603.811,288.038L602.135,277.794L599.805,268.191L596.725,257.761L591.32,248.106L585.262,241.899L578.021,236.915L569.227,232.676L559.637,231.151L550.499,230.702L541.732,231.321L531.999,233.255L522.248,237.521L513.911,243.464L507.741,249.047L502.436,254.58L497.461,260.299L492.61,266.304L487.786,272.628L482.936,279.282L478.03,286.264L473.051,293.561L467.992,301.159L462.852,309.034L457.632,317.164L452.339,325.521L339.927,513.678L336.176,520.564L332.629,527.249L329.295,533.748L326.178,540.091L323.283,546.315L320.616,552.478L318.187,558.652L316.017,564.946L314.149,571.498L312.662,578.543L311.735,586.525L311.852,597.684L314.021,609.011L319.44,621.256L328.174,632.198L338.587,640.127L349.011,645.148L359.035,648.259L369.096,650.291L379.849,651.705L391.736,652.541Z" style="fill-rule:nonzero;"/>
        <path d="M408.174,566.665L522.431,566.664L520.992,376.434L408.174,566.665Z" style="fill:white;fill-rule:nonzero;"/>
    </g>
</svg>
