<?xml version="1.0" encoding="UTF-8" standalone="no"?>
<!DOCTYPE svg PUBLIC "-//W3C//DTD SVG 1.1//EN" "http://www.w3.org/Graphics/SVG/1.1/DTD/svg11.dtd">
<svg width="100%" height="100%" viewBox="0 0 1024 1024" version="1.1" xmlns="http://www.w3.org/2000/svg" xmlns:xlink="http://www.w3.org/1999/xlink" xml:space="preserve" xmlns:serif="http://www.serif.com/" style="fill-rule:evenodd;clip-rule:evenodd;stroke-linejoin:round;stroke-miterlimit:2;">
    <g id="White" transform="matrix(1.81818,0,0,2.65152,-339.117,-1140.36)">
        <rect x="186.514" y="430.08" width="563.2" height="386.194" style="fill:white;"/>
    </g>
    <g transform="matrix(1.04673,0,0,1.86218,-47.9015,-450.952)">
        <g id="Maroon-Strpe" serif:id="Maroon Strpe">
            <rect x="45.763" y="338.824" width="978.286" height="356.571" style="fill:rgb(148,56,56);"/>
        </g>
    </g>
    <g id="Number" transform="matrix(0.484375,0,0,0.484375,264,264)">
        <path d="M512,0L445.17,4.381L379.485,17.446L316.066,38.973L256,68.594L200.314,105.803L149.962,149.962L105.803,200.314L68.595,256L38.973,316.066L17.446,379.485L4.381,445.17L0,511.999L4.381,578.829L17.446,644.515L38.973,707.934L68.595,767.999L105.803,823.686L149.962,874.039L200.314,918.197L256,955.404L316.066,985.027L379.485,1006.55L445.17,1019.62L512,1024L578.829,1019.62L644.516,1006.55L707.934,985.027L768,955.404L823.686,918.197L874.038,874.039L918.197,823.686L955.405,767.999L985.026,707.934L1006.55,644.515L1019.62,578.829L1024,511.999L1019.62,445.17L1006.55,379.485L985.026,316.066L955.405,256L918.197,200.314L874.038,149.962L823.686,105.803L768,68.594L707.934,38.973L644.516,17.446L578.829,4.381L512,0Z" style="fill:white;fill-rule:nonzero;"/>
        <path d="M269.384,786.183L262.988,780.935L257.739,774.54L253.84,767.243L251.437,759.327L250.525,751.072L250.525,272.928L251.437,264.675L253.84,256.757L257.739,249.46L262.988,243.064L269.384,237.815L276.681,233.915L284.598,231.514L292.831,230.703L301.065,231.514L308.983,233.915L316.279,237.815L322.761,243.064L328.287,249.46L332.497,256.757L335.033,264.675L335.859,272.928L335.859,751.072L335.033,759.327L332.497,767.243L328.287,774.54L322.761,780.935L316.279,786.183L308.983,790.083L301.065,792.486L292.831,793.297L284.598,792.486L276.681,790.083L269.384,786.183Z" style="fill-rule:nonzero;"/>
        <path d="M694.418,230.702L702.766,231.523L710.793,233.954L718.191,237.902L724.762,243.157L730.365,249.494L734.633,256.817L737.203,264.931L738.042,273.43L737.203,281.927L734.721,290.101L730.689,297.632L725.264,304.232L718.654,309.649L711.112,313.675L702.928,316.154L694.418,316.99L492.421,317.094L492.421,440.381L496.737,437.244L501.797,434.246L505.61,432.222L510.617,429.73L515.725,427.351L520.824,425.097L525.886,422.973L530.928,420.986L535.967,419.141L541.023,417.446L546.114,415.904L551.261,414.521L556.486,413.302L561.811,412.249L567.26,411.366L572.856,410.661L578.625,410.134L584.59,409.788L590.673,409.629L596.776,409.661L602.89,409.886L609.01,410.308L615.127,410.93L621.232,411.756L627.319,412.79L633.38,414.032L639.403,415.485L645.383,417.154L651.31,419.038L657.174,421.138L662.967,423.456L668.68,425.992L674.301,428.743L679.824,431.715L685.237,434.899L690.532,438.298L695.7,441.908L700.729,445.726L705.611,449.748L710.337,453.968L714.897,458.38L719.284,462.978L723.492,467.751L727.514,472.691L731.346,477.79L734.984,483.037L738.427,488.424L741.676,493.942L744.734,499.587L747.601,505.355L750.281,511.242L752.776,517.245L755.087,523.363L757.215,529.595L759.16,535.938L760.922,542.391L762.5,548.955L763.892,555.625L765.096,562.405L766.108,569.29L766.924,576.281L767.539,583.377L767.948,590.58L768.143,601.587L768.116,608.998L767.854,616.511L767.347,624.124L766.578,631.83L765.531,639.627L764.186,647.508L762.522,655.463L760.514,663.483L758.133,671.553L755.35,679.657L752.131,687.777L748.444,695.877L744.266,703.91L739.587,711.818L734.403,719.546L728.722,727.041L722.562,734.258L715.94,741.154L708.888,747.694L701.435,753.851L693.615,759.601L685.465,764.928L677.02,769.819L668.316,774.264L659.388,778.258L650.274,781.797L640.998,784.877L631.585,787.493L622.055,789.639L612.43,791.306L602.731,792.479L592.98,793.147L583.198,793.295L573.414,792.908L563.652,791.972L553.945,790.476L544.324,788.41L534.826,785.771L525.485,782.562L516.338,778.79L507.407,774.469L498.71,769.606L490.257,764.208L482.061,758.282L474.132,751.834L466.477,744.868L459.104,737.392L452.01,729.41L445.194,720.917L438.651,711.915L432.367,702.393L426.328,692.34L421.358,683.268L416.697,674.095L413.7,664.496L412.937,653.787L414.222,645.469L417.001,637.555L421.269,630.337L426.864,624.09L434.602,618.584L443.92,614.864L454.574,613.649L464.55,615.113L473.19,619.266L479.462,625.67L484.122,633.436L488.057,641.298L491.499,648.194L494.85,654.348L498.894,661.039L503.286,667.538L507.683,673.359L512.114,678.61L516.91,683.621L523.15,689.258L531.598,695.869L539.828,701.049L547.755,704.987L555.682,707.997L563.806,710.216L572.184,711.658L581.951,712.349L592.049,712.073L601.731,710.911L611.012,708.999L621.364,705.795L631.121,701.691L640.038,696.843L648.003,691.399L655.021,685.458L661.184,679.043L666.619,672.095L671.45,664.489L675.739,656.114L679.439,647.021L682.467,637.344L684.749,627.245L686.229,616.909L686.88,606.538L686.709,592.625L685.758,582.738L684.096,573.298L681.807,564.4L678.984,556.115L675.727,548.482L672.118,541.518L668.234,535.212L664.123,529.522L659.796,524.383L655.232,519.71L650.399,515.439L645.261,511.526L639.783,507.946L633.944,504.696L627.739,501.79L621.18,499.254L614.291,497.115L607.112,495.404L599.695,494.153L592.106,493.384L584.423,493.113L576.879,493.348L569.664,494.076L562.777,495.283L556.203,496.944L549.91,499.034L543.853,501.529L537.985,504.408L532.247,507.66L526.579,511.278L520.932,515.245L515.283,519.525L509.804,524.053L504.626,528.732L499.81,533.454L495.411,538.09L491.46,542.507L484.878,547.95L477.392,552.587L471.93,555.355L464.544,557.555L453.546,558.526L441.436,557.04L433.25,553.27L424.942,547.723L419.353,541.186L414.687,533.523L411.273,525.724L408.83,515.996L407.229,505.568L406.113,494.104L406.296,287.047L406.412,283.775L406.672,280.034L407.238,275.491L408.436,269.788L410.841,262.728L415.149,254.677L421.598,246.825L429.387,240.565L437.143,236.432L444.002,234.02L449.929,232.659L455.268,231.886L460.415,231.438L465.889,231.167L472.329,230.857L480.448,230.702L694.418,230.702Z" style="fill-rule:nonzero;"/>
    </g>
</svg>
